{
 "cells": [
  {
   "cell_type": "code",
   "execution_count": 60,
   "id": "63194304",
   "metadata": {},
   "outputs": [],
   "source": [
    "import os\n",
    "from pathlib import Path"
   ]
  },
  {
   "cell_type": "code",
   "execution_count": 61,
   "id": "33db6ab8",
   "metadata": {},
   "outputs": [],
   "source": [
    "# Download Group Videos and Place them into the base_dir\n"
   ]
  },
  {
   "cell_type": "code",
   "execution_count": 62,
   "id": "ecc6e725",
   "metadata": {},
   "outputs": [],
   "source": [
    "vidfiles = Path(base_dir).glob('*.mp4')"
   ]
  },
  {
   "cell_type": "code",
   "execution_count": 63,
   "id": "c012ae11",
   "metadata": {},
   "outputs": [],
   "source": [
    "ind = 0\n",
    "for f in vidfiles:\n",
    "    !mkdir {os.path.join(out_dir, output_folder % ind)}\n",
    "    ind = ind + 1"
   ]
  },
  {
   "cell_type": "code",
   "execution_count": 64,
   "id": "dffd58f7",
   "metadata": {},
   "outputs": [],
   "source": [
    "vidfiles = Path(base_dir).glob('*.mp4')"
   ]
  },
  {
   "cell_type": "code",
   "execution_count": 65,
   "id": "4e72c6aa",
   "metadata": {},
   "outputs": [
    {
     "name": "stderr",
     "output_type": "stream",
     "text": [
      "ffmpeg version 5.0.1-essentials_build-www.gyan.dev Copyright (c) 2000-2022 the FFmpeg developers\n",
      "  built with gcc 11.2.0 (Rev7, Built by MSYS2 project)\n",
      "  configuration: --enable-gpl --enable-version3 --enable-static --disable-w32threads --disable-autodetect --enable-fontconfig --enable-iconv --enable-gnutls --enable-libxml2 --enable-gmp --enable-lzma --enable-zlib --enable-libsrt --enable-libssh --enable-libzmq --enable-avisynth --enable-sdl2 --enable-libwebp --enable-libx264 --enable-libx265 --enable-libxvid --enable-libaom --enable-libopenjpeg --enable-libvpx --enable-libass --enable-libfreetype --enable-libfribidi --enable-libvidstab --enable-libvmaf --enable-libzimg --enable-amf --enable-cuda-llvm --enable-cuvid --enable-ffnvcodec --enable-nvdec --enable-nvenc --enable-d3d11va --enable-dxva2 --enable-libmfx --enable-libgme --enable-libopenmpt --enable-libopencore-amrwb --enable-libmp3lame --enable-libtheora --enable-libvo-amrwbenc --enable-libgsm --enable-libopencore-amrnb --enable-libopus --enable-libspeex --enable-libvorbis --enable-librubberband\n",
      "  libavutil      57. 17.100 / 57. 17.100\n",
      "  libavcodec     59. 18.100 / 59. 18.100\n",
      "  libavformat    59. 16.100 / 59. 16.100\n",
      "  libavdevice    59.  4.100 / 59.  4.100\n",
      "  libavfilter     8. 24.100 /  8. 24.100\n",
      "  libswscale      6.  4.100 /  6.  4.100\n",
      "  libswresample   4.  3.100 /  4.  3.100\n",
      "  libpostproc    56.  3.100 / 56.  3.100\n",
      "Input #0, mov,mp4,m4a,3gp,3g2,mj2, from 'D:\\vol05\\3\\v0.mp4':\n",
      "  Metadata:\n",
      "    major_brand     : isom\n",
      "    minor_version   : 512\n",
      "    compatible_brands: isomiso2mp41\n",
      "    encoder         : Lavf59.16.100\n",
      "    location-eng    : +41.2071+029.0747/\n",
      "    location        : +41.2071+029.0747/\n",
      "  Duration: 00:04:55.17, start: 0.000000, bitrate: 546 kb/s\n",
      "  Stream #0:0[0x1](eng): Video: hevc (Main) (hev1 / 0x31766568), yuv420p(tv, bt709, progressive), 1920x1080 [SAR 1:1 DAR 16:9], 396 kb/s, 30 fps, 30 tbr, 15360 tbn (default)\n",
      "    Metadata:\n",
      "      handler_name    : VideoHandle\n",
      "      vendor_id       : [0][0][0][0]\n",
      "  Stream #0:1[0x2](eng): Audio: aac (mp4a / 0x6134706D), 48000 Hz, stereo, fltp, 128 kb/s (default)\n",
      "    Metadata:\n",
      "      handler_name    : SoundHandle\n",
      "      vendor_id       : [0][0][0][0]\n",
      "Stream mapping:\n",
      "  Stream #0:0 -> #0:0 (hevc (native) -> png (native))\n",
      "Press [q] to stop, [?] for help\n",
      "Output #0, image2, to 'C:\\Users\\ASABUNCUOGLU13\\Documents\\data\\vol05\\face\\frames-0\\f%d.png':\n",
      "  Metadata:\n",
      "    major_brand     : isom\n",
      "    minor_version   : 512\n",
      "    compatible_brands: isomiso2mp41\n",
      "    location        : +41.2071+029.0747/\n",
      "    location-eng    : +41.2071+029.0747/\n",
      "    encoder         : Lavf59.16.100\n",
      "  Stream #0:0(eng): Video: png, rgb24(pc, gbr/bt709/bt709, progressive), 1920x1080 [SAR 1:1 DAR 16:9], q=2-31, 200 kb/s, 1 fps, 1 tbn (default)\n",
      "    Metadata:\n",
      "      handler_name    : VideoHandle\n",
      "      vendor_id       : [0][0][0][0]\n",
      "      encoder         : Lavc59.18.100 png\n",
      "frame=    1 fps=0.0 q=0.0 size=N/A time=00:00:00.00 bitrate=N/A speed=   0x    \n",
      "frame=   12 fps=0.0 q=-0.0 size=N/A time=00:00:05.00 bitrate=N/A speed=6.41x    \n",
      "frame=   23 fps= 18 q=-0.0 size=N/A time=00:00:15.00 bitrate=N/A speed=11.6x    \n",
      "frame=   34 fps= 19 q=-0.0 size=N/A time=00:00:26.00 bitrate=N/A speed=14.5x    \n",
      "frame=   44 fps= 19 q=-0.0 size=N/A time=00:00:36.00 bitrate=N/A speed=15.7x    \n",
      "frame=   56 fps= 20 q=-0.0 size=N/A time=00:00:48.00 bitrate=N/A speed=17.2x    \n",
      "frame=   67 fps= 20 q=-0.0 size=N/A time=00:00:59.00 bitrate=N/A speed=17.9x    \n",
      "frame=   76 fps= 20 q=-0.0 size=N/A time=00:01:08.00 bitrate=N/A speed=17.8x    \n",
      "frame=   87 fps= 20 q=-0.0 size=N/A time=00:01:19.00 bitrate=N/A speed=18.2x    \n",
      "frame=   99 fps= 20 q=-0.0 size=N/A time=00:01:31.00 bitrate=N/A speed=18.8x    \n",
      "frame=  109 fps= 20 q=-0.0 size=N/A time=00:01:41.00 bitrate=N/A speed=18.9x    \n",
      "frame=  122 fps= 21 q=-0.0 size=N/A time=00:01:54.00 bitrate=N/A speed=19.5x    \n",
      "frame=  135 fps= 21 q=-0.0 size=N/A time=00:02:06.00 bitrate=N/A speed=19.8x    \n",
      "frame=  147 fps= 21 q=-0.0 size=N/A time=00:02:18.00 bitrate=N/A speed=20.1x    \n",
      "frame=  158 fps= 21 q=-0.0 size=N/A time=00:02:29.00 bitrate=N/A speed=20.3x    \n",
      "frame=  170 fps= 22 q=-0.0 size=N/A time=00:02:41.00 bitrate=N/A speed=20.5x    \n",
      "frame=  182 fps= 22 q=-0.0 size=N/A time=00:02:53.00 bitrate=N/A speed=20.7x    \n",
      "frame=  194 fps= 22 q=-0.0 size=N/A time=00:03:05.00 bitrate=N/A speed=20.9x    \n",
      "frame=  205 fps= 22 q=-0.0 size=N/A time=00:03:16.00 bitrate=N/A speed=20.9x    \n",
      "frame=  217 fps= 22 q=-0.0 size=N/A time=00:03:28.00 bitrate=N/A speed=21.1x    \n",
      "frame=  229 fps= 22 q=-0.0 size=N/A time=00:03:40.00 bitrate=N/A speed=21.2x    \n",
      "frame=  243 fps= 22 q=-0.0 size=N/A time=00:03:54.00 bitrate=N/A speed=21.5x    \n",
      "frame=  256 fps= 23 q=-0.0 size=N/A time=00:04:07.00 bitrate=N/A speed=21.7x    \n",
      "frame=  268 fps= 23 q=-0.0 size=N/A time=00:04:19.00 bitrate=N/A speed=21.8x    \n",
      "frame=  282 fps= 23 q=-0.0 size=N/A time=00:04:33.00 bitrate=N/A speed=22.1x    \n",
      "frame=  295 fps= 23 q=-0.0 size=N/A time=00:04:46.00 bitrate=N/A speed=22.2x    \n",
      "frame=  295 fps= 23 q=-0.0 Lsize=N/A time=00:04:55.00 bitrate=N/A speed=22.7x    \n",
      "video:516749kB audio:0kB subtitle:0kB other streams:0kB global headers:0kB muxing overhead: unknown\n",
      "ffmpeg version 5.0.1-essentials_build-www.gyan.dev Copyright (c) 2000-2022 the FFmpeg developers\n",
      "  built with gcc 11.2.0 (Rev7, Built by MSYS2 project)\n",
      "  configuration: --enable-gpl --enable-version3 --enable-static --disable-w32threads --disable-autodetect --enable-fontconfig --enable-iconv --enable-gnutls --enable-libxml2 --enable-gmp --enable-lzma --enable-zlib --enable-libsrt --enable-libssh --enable-libzmq --enable-avisynth --enable-sdl2 --enable-libwebp --enable-libx264 --enable-libx265 --enable-libxvid --enable-libaom --enable-libopenjpeg --enable-libvpx --enable-libass --enable-libfreetype --enable-libfribidi --enable-libvidstab --enable-libvmaf --enable-libzimg --enable-amf --enable-cuda-llvm --enable-cuvid --enable-ffnvcodec --enable-nvdec --enable-nvenc --enable-d3d11va --enable-dxva2 --enable-libmfx --enable-libgme --enable-libopenmpt --enable-libopencore-amrwb --enable-libmp3lame --enable-libtheora --enable-libvo-amrwbenc --enable-libgsm --enable-libopencore-amrnb --enable-libopus --enable-libspeex --enable-libvorbis --enable-librubberband\n",
      "  libavutil      57. 17.100 / 57. 17.100\n",
      "  libavcodec     59. 18.100 / 59. 18.100\n",
      "  libavformat    59. 16.100 / 59. 16.100\n",
      "  libavdevice    59.  4.100 / 59.  4.100\n",
      "  libavfilter     8. 24.100 /  8. 24.100\n",
      "  libswscale      6.  4.100 /  6.  4.100\n",
      "  libswresample   4.  3.100 /  4.  3.100\n",
      "  libpostproc    56.  3.100 / 56.  3.100\n",
      "Input #0, mov,mp4,m4a,3gp,3g2,mj2, from 'D:\\vol05\\3\\v1.mp4':\n",
      "  Metadata:\n",
      "    major_brand     : isom\n",
      "    minor_version   : 512\n",
      "    compatible_brands: isomiso2mp41\n",
      "    encoder         : Lavf59.16.100\n",
      "    location-eng    : +41.2071+029.0747/\n",
      "    location        : +41.2071+029.0747/\n",
      "  Duration: 00:05:00.10, start: 0.000000, bitrate: 515 kb/s\n",
      "  Stream #0:0[0x1](eng): Video: hevc (Main) (hev1 / 0x31766568), yuv420p(tv, bt709, progressive), 1920x1080 [SAR 1:1 DAR 16:9], 375 kb/s, 30 fps, 30 tbr, 15360 tbn (default)\n",
      "    Metadata:\n",
      "      handler_name    : VideoHandle\n",
      "      vendor_id       : [0][0][0][0]\n",
      "  Stream #0:1[0x2](eng): Audio: aac (LC) (mp4a / 0x6134706D), 48000 Hz, stereo, fltp, 128 kb/s (default)\n",
      "    Metadata:\n",
      "      handler_name    : SoundHandle\n",
      "      vendor_id       : [0][0][0][0]\n",
      "Stream mapping:\n",
      "  Stream #0:0 -> #0:0 (hevc (native) -> png (native))\n",
      "Press [q] to stop, [?] for help\n",
      "Output #0, image2, to 'C:\\Users\\ASABUNCUOGLU13\\Documents\\data\\vol05\\face\\frames-1\\f%d.png':\n",
      "  Metadata:\n",
      "    major_brand     : isom\n",
      "    minor_version   : 512\n",
      "    compatible_brands: isomiso2mp41\n",
      "    location        : +41.2071+029.0747/\n",
      "    location-eng    : +41.2071+029.0747/\n",
      "    encoder         : Lavf59.16.100\n",
      "  Stream #0:0(eng): Video: png, rgb24(pc, gbr/bt709/bt709, progressive), 1920x1080 [SAR 1:1 DAR 16:9], q=2-31, 200 kb/s, 1 fps, 1 tbn (default)\n",
      "    Metadata:\n",
      "      handler_name    : VideoHandle\n",
      "      vendor_id       : [0][0][0][0]\n",
      "      encoder         : Lavc59.18.100 png\n",
      "frame=    1 fps=0.0 q=0.0 size=N/A time=00:00:00.00 bitrate=N/A speed=   0x    \n",
      "frame=   15 fps=0.0 q=-0.0 size=N/A time=00:00:07.00 bitrate=N/A speed=11.4x    \n",
      "frame=   28 fps= 25 q=-0.0 size=N/A time=00:00:20.00 bitrate=N/A speed=17.9x    \n",
      "frame=   41 fps= 25 q=-0.0 size=N/A time=00:00:33.00 bitrate=N/A speed=20.4x    \n",
      "frame=   54 fps= 26 q=-0.0 size=N/A time=00:00:46.00 bitrate=N/A speed=21.7x    \n",
      "frame=   67 fps= 26 q=-0.0 size=N/A time=00:00:59.00 bitrate=N/A speed=22.6x    \n",
      "frame=   80 fps= 26 q=-0.0 size=N/A time=00:01:12.00 bitrate=N/A speed=23.1x    \n",
      "frame=   93 fps= 26 q=-0.0 size=N/A time=00:01:25.00 bitrate=N/A speed=23.5x    \n",
      "frame=  107 fps= 26 q=-0.0 size=N/A time=00:01:39.00 bitrate=N/A speed=  24x    \n",
      "frame=  120 fps= 26 q=-0.0 size=N/A time=00:01:52.00 bitrate=N/A speed=24.2x    \n",
      "frame=  133 fps= 26 q=-0.0 size=N/A time=00:02:05.00 bitrate=N/A speed=24.4x    \n",
      "frame=  146 fps= 26 q=-0.0 size=N/A time=00:02:18.00 bitrate=N/A speed=24.5x    \n",
      "frame=  159 fps= 26 q=-0.0 size=N/A time=00:02:31.00 bitrate=N/A speed=24.6x    \n",
      "frame=  172 fps= 26 q=-0.0 size=N/A time=00:02:43.00 bitrate=N/A speed=24.6x    \n",
      "frame=  184 fps= 26 q=-0.0 size=N/A time=00:02:55.00 bitrate=N/A speed=24.5x    \n",
      "frame=  197 fps= 26 q=-0.0 size=N/A time=00:03:08.00 bitrate=N/A speed=24.6x    \n",
      "frame=  211 fps= 26 q=-0.0 size=N/A time=00:03:22.00 bitrate=N/A speed=24.8x    \n",
      "frame=  224 fps= 26 q=-0.0 size=N/A time=00:03:35.00 bitrate=N/A speed=24.9x    \n",
      "frame=  237 fps= 26 q=-0.0 size=N/A time=00:03:48.00 bitrate=N/A speed=24.9x    \n",
      "frame=  250 fps= 26 q=-0.0 size=N/A time=00:04:01.00 bitrate=N/A speed=  25x    \n",
      "frame=  263 fps= 26 q=-0.0 size=N/A time=00:04:14.00 bitrate=N/A speed=  25x    \n",
      "frame=  276 fps= 26 q=-0.0 size=N/A time=00:04:27.00 bitrate=N/A speed=25.1x    \n",
      "frame=  288 fps= 26 q=-0.0 size=N/A time=00:04:39.00 bitrate=N/A speed=  25x    \n",
      "frame=  298 fps= 26 q=-0.0 size=N/A time=00:04:49.00 bitrate=N/A speed=24.8x    \n",
      "frame=  300 fps= 25 q=-0.0 Lsize=N/A time=00:05:00.00 bitrate=N/A speed=25.3x    \n",
      "video:490159kB audio:0kB subtitle:0kB other streams:0kB global headers:0kB muxing overhead: unknown\n",
      "ffmpeg version 5.0.1-essentials_build-www.gyan.dev Copyright (c) 2000-2022 the FFmpeg developers\n",
      "  built with gcc 11.2.0 (Rev7, Built by MSYS2 project)\n",
      "  configuration: --enable-gpl --enable-version3 --enable-static --disable-w32threads --disable-autodetect --enable-fontconfig --enable-iconv --enable-gnutls --enable-libxml2 --enable-gmp --enable-lzma --enable-zlib --enable-libsrt --enable-libssh --enable-libzmq --enable-avisynth --enable-sdl2 --enable-libwebp --enable-libx264 --enable-libx265 --enable-libxvid --enable-libaom --enable-libopenjpeg --enable-libvpx --enable-libass --enable-libfreetype --enable-libfribidi --enable-libvidstab --enable-libvmaf --enable-libzimg --enable-amf --enable-cuda-llvm --enable-cuvid --enable-ffnvcodec --enable-nvdec --enable-nvenc --enable-d3d11va --enable-dxva2 --enable-libmfx --enable-libgme --enable-libopenmpt --enable-libopencore-amrwb --enable-libmp3lame --enable-libtheora --enable-libvo-amrwbenc --enable-libgsm --enable-libopencore-amrnb --enable-libopus --enable-libspeex --enable-libvorbis --enable-librubberband\n",
      "  libavutil      57. 17.100 / 57. 17.100\n",
      "  libavcodec     59. 18.100 / 59. 18.100\n",
      "  libavformat    59. 16.100 / 59. 16.100\n",
      "  libavdevice    59.  4.100 / 59.  4.100\n",
      "  libavfilter     8. 24.100 /  8. 24.100\n",
      "  libswscale      6.  4.100 /  6.  4.100\n",
      "  libswresample   4.  3.100 /  4.  3.100\n",
      "  libpostproc    56.  3.100 / 56.  3.100\n",
      "Input #0, mov,mp4,m4a,3gp,3g2,mj2, from 'D:\\vol05\\3\\v10.mp4':\n",
      "  Metadata:\n",
      "    major_brand     : isom\n",
      "    minor_version   : 512\n",
      "    compatible_brands: isomiso2mp41\n",
      "    encoder         : Lavf59.16.100\n",
      "    location-eng    : +41.2071+029.0747/\n",
      "    location        : +41.2071+029.0747/\n",
      "  Duration: 00:05:00.13, start: 0.000000, bitrate: 959 kb/s\n",
      "  Stream #0:0[0x1](eng): Video: hevc (Main) (hev1 / 0x31766568), yuv420p(tv, bt709, progressive), 1920x1080 [SAR 1:1 DAR 16:9], 814 kb/s, 30 fps, 30 tbr, 15360 tbn (default)\n",
      "    Metadata:\n",
      "      handler_name    : VideoHandle\n",
      "      vendor_id       : [0][0][0][0]\n",
      "  Stream #0:1[0x2](eng): Audio: aac (LC) (mp4a / 0x6134706D), 48000 Hz, stereo, fltp, 129 kb/s (default)\n",
      "    Metadata:\n",
      "      handler_name    : SoundHandle\n",
      "      vendor_id       : [0][0][0][0]\n",
      "Stream mapping:\n",
      "  Stream #0:0 -> #0:0 (hevc (native) -> png (native))\n",
      "Press [q] to stop, [?] for help\n",
      "Output #0, image2, to 'C:\\Users\\ASABUNCUOGLU13\\Documents\\data\\vol05\\face\\frames-2\\f%d.png':\n",
      "  Metadata:\n",
      "    major_brand     : isom\n",
      "    minor_version   : 512\n",
      "    compatible_brands: isomiso2mp41\n",
      "    location        : +41.2071+029.0747/\n",
      "    location-eng    : +41.2071+029.0747/\n",
      "    encoder         : Lavf59.16.100\n",
      "  Stream #0:0(eng): Video: png, rgb24(pc, gbr/bt709/bt709, progressive), 1920x1080 [SAR 1:1 DAR 16:9], q=2-31, 200 kb/s, 1 fps, 1 tbn (default)\n",
      "    Metadata:\n",
      "      handler_name    : VideoHandle\n",
      "      vendor_id       : [0][0][0][0]\n",
      "      encoder         : Lavc59.18.100 png\n",
      "frame=    1 fps=0.0 q=0.0 size=N/A time=00:00:00.00 bitrate=N/A speed=   0x    \n",
      "frame=   11 fps=0.0 q=-0.0 size=N/A time=00:00:04.00 bitrate=N/A speed=6.12x    \n",
      "frame=   22 fps= 19 q=-0.0 size=N/A time=00:00:15.00 bitrate=N/A speed=  13x    \n",
      "frame=   33 fps= 20 q=-0.0 size=N/A time=00:00:26.00 bitrate=N/A speed=15.7x    \n",
      "frame=   42 fps= 19 q=-0.0 size=N/A time=00:00:35.00 bitrate=N/A speed=16.2x    \n",
      "frame=   54 fps= 20 q=-0.0 size=N/A time=00:00:46.00 bitrate=N/A speed=17.3x    \n",
      "frame=   65 fps= 21 q=-0.0 size=N/A time=00:00:57.00 bitrate=N/A speed=  18x    \n",
      "frame=   77 fps= 21 q=-0.0 size=N/A time=00:01:09.00 bitrate=N/A speed=18.9x    \n",
      "frame=   87 fps= 21 q=-0.0 size=N/A time=00:01:19.00 bitrate=N/A speed=  19x    \n",
      "frame=   97 fps= 21 q=-0.0 size=N/A time=00:01:29.00 bitrate=N/A speed=19.1x    \n",
      "frame=  108 fps= 21 q=-0.0 size=N/A time=00:01:40.00 bitrate=N/A speed=19.4x    \n",
      "frame=  117 fps= 21 q=-0.0 size=N/A time=00:01:49.00 bitrate=N/A speed=19.2x    \n",
      "frame=  128 fps= 21 q=-0.0 size=N/A time=00:02:00.00 bitrate=N/A speed=19.5x    \n",
      "frame=  138 fps= 21 q=-0.0 size=N/A time=00:02:10.00 bitrate=N/A speed=19.5x    \n",
      "frame=  148 fps= 21 q=-0.0 size=N/A time=00:02:20.00 bitrate=N/A speed=19.5x    \n",
      "frame=  159 fps= 21 q=-0.0 size=N/A time=00:02:31.00 bitrate=N/A speed=19.7x    \n",
      "frame=  169 fps= 21 q=-0.0 size=N/A time=00:02:41.00 bitrate=N/A speed=19.7x    \n",
      "frame=  179 fps= 21 q=-0.0 size=N/A time=00:02:51.00 bitrate=N/A speed=19.7x    \n",
      "frame=  189 fps= 21 q=-0.0 size=N/A time=00:03:01.00 bitrate=N/A speed=19.7x    \n",
      "frame=  199 fps= 21 q=-0.0 size=N/A time=00:03:11.00 bitrate=N/A speed=19.7x    \n",
      "frame=  209 fps= 21 q=-0.0 size=N/A time=00:03:21.00 bitrate=N/A speed=19.8x    \n",
      "frame=  218 fps= 20 q=-0.0 size=N/A time=00:03:30.00 bitrate=N/A speed=19.7x    \n",
      "frame=  227 fps= 20 q=-0.0 size=N/A time=00:03:39.00 bitrate=N/A speed=19.6x    \n",
      "frame=  235 fps= 20 q=-0.0 size=N/A time=00:03:47.00 bitrate=N/A speed=19.4x    \n",
      "frame=  243 fps= 20 q=-0.0 size=N/A time=00:03:55.00 bitrate=N/A speed=19.3x    \n",
      "frame=  251 fps= 20 q=-0.0 size=N/A time=00:04:03.00 bitrate=N/A speed=19.2x    \n",
      "frame=  259 fps= 20 q=-0.0 size=N/A time=00:04:11.00 bitrate=N/A speed=  19x    \n",
      "frame=  267 fps= 20 q=-0.0 size=N/A time=00:04:19.00 bitrate=N/A speed=18.9x    \n",
      "frame=  276 fps= 19 q=-0.0 size=N/A time=00:04:28.00 bitrate=N/A speed=18.9x    \n",
      "frame=  285 fps= 19 q=-0.0 size=N/A time=00:04:37.00 bitrate=N/A speed=18.9x    \n",
      "frame=  294 fps= 19 q=-0.0 size=N/A time=00:04:46.00 bitrate=N/A speed=18.8x    \n",
      "frame=  300 fps= 19 q=-0.0 Lsize=N/A time=00:05:00.00 bitrate=N/A speed=19.1x    \n",
      "video:574354kB audio:0kB subtitle:0kB other streams:0kB global headers:0kB muxing overhead: unknown\n",
      "ffmpeg version 5.0.1-essentials_build-www.gyan.dev Copyright (c) 2000-2022 the FFmpeg developers\n",
      "  built with gcc 11.2.0 (Rev7, Built by MSYS2 project)\n",
      "  configuration: --enable-gpl --enable-version3 --enable-static --disable-w32threads --disable-autodetect --enable-fontconfig --enable-iconv --enable-gnutls --enable-libxml2 --enable-gmp --enable-lzma --enable-zlib --enable-libsrt --enable-libssh --enable-libzmq --enable-avisynth --enable-sdl2 --enable-libwebp --enable-libx264 --enable-libx265 --enable-libxvid --enable-libaom --enable-libopenjpeg --enable-libvpx --enable-libass --enable-libfreetype --enable-libfribidi --enable-libvidstab --enable-libvmaf --enable-libzimg --enable-amf --enable-cuda-llvm --enable-cuvid --enable-ffnvcodec --enable-nvdec --enable-nvenc --enable-d3d11va --enable-dxva2 --enable-libmfx --enable-libgme --enable-libopenmpt --enable-libopencore-amrwb --enable-libmp3lame --enable-libtheora --enable-libvo-amrwbenc --enable-libgsm --enable-libopencore-amrnb --enable-libopus --enable-libspeex --enable-libvorbis --enable-librubberband\n",
      "  libavutil      57. 17.100 / 57. 17.100\n",
      "  libavcodec     59. 18.100 / 59. 18.100\n",
      "  libavformat    59. 16.100 / 59. 16.100\n",
      "  libavdevice    59.  4.100 / 59.  4.100\n",
      "  libavfilter     8. 24.100 /  8. 24.100\n",
      "  libswscale      6.  4.100 /  6.  4.100\n",
      "  libswresample   4.  3.100 /  4.  3.100\n",
      "  libpostproc    56.  3.100 / 56.  3.100\n",
      "Input #0, mov,mp4,m4a,3gp,3g2,mj2, from 'D:\\vol05\\3\\v11.mp4':\n",
      "  Metadata:\n",
      "    major_brand     : isom\n",
      "    minor_version   : 512\n",
      "    compatible_brands: isomiso2mp41\n",
      "    encoder         : Lavf59.16.100\n",
      "    location-eng    : +41.2071+029.0747/\n",
      "    location        : +41.2071+029.0747/\n",
      "  Duration: 00:03:20.17, start: 0.000000, bitrate: 1079 kb/s\n",
      "  Stream #0:0[0x1](eng): Video: hevc (Main) (hev1 / 0x31766568), yuv420p(tv, bt709, progressive), 1920x1080 [SAR 1:1 DAR 16:9], 931 kb/s, 30 fps, 30 tbr, 15360 tbn (default)\n",
      "    Metadata:\n",
      "      handler_name    : VideoHandle\n",
      "      vendor_id       : [0][0][0][0]\n",
      "  Stream #0:1[0x2](eng): Audio: aac (LC) (mp4a / 0x6134706D), 48000 Hz, stereo, fltp, 129 kb/s (default)\n",
      "    Metadata:\n",
      "      handler_name    : SoundHandle\n",
      "      vendor_id       : [0][0][0][0]\n",
      "Stream mapping:\n",
      "  Stream #0:0 -> #0:0 (hevc (native) -> png (native))\n",
      "Press [q] to stop, [?] for help\n",
      "Output #0, image2, to 'C:\\Users\\ASABUNCUOGLU13\\Documents\\data\\vol05\\face\\frames-3\\f%d.png':\n",
      "  Metadata:\n",
      "    major_brand     : isom\n",
      "    minor_version   : 512\n",
      "    compatible_brands: isomiso2mp41\n",
      "    location        : +41.2071+029.0747/\n",
      "    location-eng    : +41.2071+029.0747/\n",
      "    encoder         : Lavf59.16.100\n",
      "  Stream #0:0(eng): Video: png, rgb24(pc, gbr/bt709/bt709, progressive), 1920x1080 [SAR 1:1 DAR 16:9], q=2-31, 200 kb/s, 1 fps, 1 tbn (default)\n",
      "    Metadata:\n",
      "      handler_name    : VideoHandle\n",
      "      vendor_id       : [0][0][0][0]\n",
      "      encoder         : Lavc59.18.100 png\n",
      "frame=    1 fps=0.0 q=0.0 size=N/A time=00:00:00.00 bitrate=N/A speed=   0x    \n",
      "frame=    8 fps=0.0 q=-0.0 size=N/A time=00:00:02.00 bitrate=N/A speed=3.12x    \n",
      "frame=   16 fps= 14 q=-0.0 size=N/A time=00:00:10.00 bitrate=N/A speed=8.73x    \n",
      "frame=   24 fps= 15 q=-0.0 size=N/A time=00:00:17.00 bitrate=N/A speed=10.3x    \n",
      "frame=   32 fps= 15 q=-0.0 size=N/A time=00:00:25.00 bitrate=N/A speed=11.6x    \n",
      "frame=   41 fps= 15 q=-0.0 size=N/A time=00:00:34.00 bitrate=N/A speed=12.8x    \n",
      "frame=   48 fps= 15 q=-0.0 size=N/A time=00:00:41.00 bitrate=N/A speed=  13x    \n",
      "frame=   57 fps= 16 q=-0.0 size=N/A time=00:00:50.00 bitrate=N/A speed=13.7x    \n",
      "frame=   65 fps= 16 q=-0.0 size=N/A time=00:00:58.00 bitrate=N/A speed=13.9x    \n",
      "frame=   73 fps= 16 q=-0.0 size=N/A time=00:01:06.00 bitrate=N/A speed=14.2x    \n",
      "frame=   80 fps= 16 q=-0.0 size=N/A time=00:01:13.00 bitrate=N/A speed=14.1x    \n",
      "frame=   88 fps= 16 q=-0.0 size=N/A time=00:01:21.00 bitrate=N/A speed=14.3x    \n",
      "frame=   96 fps= 16 q=-0.0 size=N/A time=00:01:29.00 bitrate=N/A speed=14.4x    \n",
      "frame=  105 fps= 16 q=-0.0 size=N/A time=00:01:38.00 bitrate=N/A speed=14.7x    \n",
      "frame=  111 fps= 15 q=-0.0 size=N/A time=00:01:44.00 bitrate=N/A speed=14.5x    \n",
      "frame=  118 fps= 15 q=-0.0 size=N/A time=00:01:51.00 bitrate=N/A speed=14.4x    \n",
      "frame=  124 fps= 15 q=-0.0 size=N/A time=00:01:57.00 bitrate=N/A speed=14.3x    \n",
      "frame=  132 fps= 15 q=-0.0 size=N/A time=00:02:05.00 bitrate=N/A speed=14.4x    \n",
      "frame=  139 fps= 15 q=-0.0 size=N/A time=00:02:12.00 bitrate=N/A speed=14.4x    \n",
      "frame=  146 fps= 15 q=-0.0 size=N/A time=00:02:19.00 bitrate=N/A speed=14.3x    \n",
      "frame=  155 fps= 15 q=-0.0 size=N/A time=00:02:28.00 bitrate=N/A speed=14.5x    \n",
      "frame=  163 fps= 15 q=-0.0 size=N/A time=00:02:36.00 bitrate=N/A speed=14.6x    \n",
      "frame=  171 fps= 15 q=-0.0 size=N/A time=00:02:44.00 bitrate=N/A speed=14.7x    \n",
      "frame=  179 fps= 15 q=-0.0 size=N/A time=00:02:52.00 bitrate=N/A speed=14.7x    \n",
      "frame=  186 fps= 15 q=-0.0 size=N/A time=00:02:59.00 bitrate=N/A speed=14.7x    \n",
      "frame=  192 fps= 15 q=-0.0 size=N/A time=00:03:05.00 bitrate=N/A speed=14.6x    \n",
      "frame=  200 fps= 15 q=-0.0 size=N/A time=00:03:13.00 bitrate=N/A speed=14.6x    \n",
      "frame=  200 fps= 15 q=-0.0 Lsize=N/A time=00:03:20.00 bitrate=N/A speed=  15x    \n",
      "video:414595kB audio:0kB subtitle:0kB other streams:0kB global headers:0kB muxing overhead: unknown\n",
      "ffmpeg version 5.0.1-essentials_build-www.gyan.dev Copyright (c) 2000-2022 the FFmpeg developers\n",
      "  built with gcc 11.2.0 (Rev7, Built by MSYS2 project)\n",
      "  configuration: --enable-gpl --enable-version3 --enable-static --disable-w32threads --disable-autodetect --enable-fontconfig --enable-iconv --enable-gnutls --enable-libxml2 --enable-gmp --enable-lzma --enable-zlib --enable-libsrt --enable-libssh --enable-libzmq --enable-avisynth --enable-sdl2 --enable-libwebp --enable-libx264 --enable-libx265 --enable-libxvid --enable-libaom --enable-libopenjpeg --enable-libvpx --enable-libass --enable-libfreetype --enable-libfribidi --enable-libvidstab --enable-libvmaf --enable-libzimg --enable-amf --enable-cuda-llvm --enable-cuvid --enable-ffnvcodec --enable-nvdec --enable-nvenc --enable-d3d11va --enable-dxva2 --enable-libmfx --enable-libgme --enable-libopenmpt --enable-libopencore-amrwb --enable-libmp3lame --enable-libtheora --enable-libvo-amrwbenc --enable-libgsm --enable-libopencore-amrnb --enable-libopus --enable-libspeex --enable-libvorbis --enable-librubberband\n",
      "  libavutil      57. 17.100 / 57. 17.100\n",
      "  libavcodec     59. 18.100 / 59. 18.100\n",
      "  libavformat    59. 16.100 / 59. 16.100\n",
      "  libavdevice    59.  4.100 / 59.  4.100\n",
      "  libavfilter     8. 24.100 /  8. 24.100\n",
      "  libswscale      6.  4.100 /  6.  4.100\n",
      "  libswresample   4.  3.100 /  4.  3.100\n",
      "  libpostproc    56.  3.100 / 56.  3.100\n",
      "Input #0, mov,mp4,m4a,3gp,3g2,mj2, from 'D:\\vol05\\3\\v2.mp4':\n",
      "  Metadata:\n",
      "    major_brand     : isom\n",
      "    minor_version   : 512\n",
      "    compatible_brands: isomiso2mp41\n",
      "    encoder         : Lavf59.16.100\n",
      "    location-eng    : +41.2071+029.0747/\n",
      "    location        : +41.2071+029.0747/\n",
      "  Duration: 00:05:00.17, start: 0.000000, bitrate: 542 kb/s\n",
      "  Stream #0:0[0x1](eng): Video: hevc (Main) (hev1 / 0x31766568), yuv420p(tv, bt709, progressive), 1920x1080 [SAR 1:1 DAR 16:9], 401 kb/s, 30 fps, 30 tbr, 15360 tbn (default)\n",
      "    Metadata:\n",
      "      handler_name    : VideoHandle\n",
      "      vendor_id       : [0][0][0][0]\n",
      "  Stream #0:1[0x2](eng): Audio: aac (LC) (mp4a / 0x6134706D), 48000 Hz, stereo, fltp, 128 kb/s (default)\n",
      "    Metadata:\n",
      "      handler_name    : SoundHandle\n",
      "      vendor_id       : [0][0][0][0]\n",
      "Stream mapping:\n",
      "  Stream #0:0 -> #0:0 (hevc (native) -> png (native))\n",
      "Press [q] to stop, [?] for help\n",
      "Output #0, image2, to 'C:\\Users\\ASABUNCUOGLU13\\Documents\\data\\vol05\\face\\frames-4\\f%d.png':\n",
      "  Metadata:\n",
      "    major_brand     : isom\n",
      "    minor_version   : 512\n",
      "    compatible_brands: isomiso2mp41\n",
      "    location        : +41.2071+029.0747/\n",
      "    location-eng    : +41.2071+029.0747/\n",
      "    encoder         : Lavf59.16.100\n",
      "  Stream #0:0(eng): Video: png, rgb24(pc, gbr/bt709/bt709, progressive), 1920x1080 [SAR 1:1 DAR 16:9], q=2-31, 200 kb/s, 1 fps, 1 tbn (default)\n",
      "    Metadata:\n",
      "      handler_name    : VideoHandle\n",
      "      vendor_id       : [0][0][0][0]\n",
      "      encoder         : Lavc59.18.100 png\n",
      "frame=    1 fps=0.0 q=0.0 size=N/A time=00:00:00.00 bitrate=N/A speed=   0x    \n",
      "frame=   11 fps=0.0 q=-0.0 size=N/A time=00:00:04.00 bitrate=N/A speed=6.68x    \n",
      "frame=   20 fps= 18 q=-0.0 size=N/A time=00:00:12.00 bitrate=N/A speed=10.9x    \n",
      "frame=   32 fps= 20 q=-0.0 size=N/A time=00:00:23.00 bitrate=N/A speed=14.2x    \n",
      "frame=   42 fps= 20 q=-0.0 size=N/A time=00:00:33.00 bitrate=N/A speed=15.5x    \n",
      "frame=   53 fps= 20 q=-0.0 size=N/A time=00:00:44.00 bitrate=N/A speed=16.8x    \n",
      "frame=   63 fps= 20 q=-0.0 size=N/A time=00:00:54.00 bitrate=N/A speed=17.3x    \n",
      "frame=   73 fps= 20 q=-0.0 size=N/A time=00:01:04.00 bitrate=N/A speed=17.6x    \n",
      "frame=   83 fps= 20 q=-0.0 size=N/A time=00:01:14.00 bitrate=N/A speed=17.9x    \n",
      "frame=   94 fps= 20 q=-0.0 size=N/A time=00:01:25.00 bitrate=N/A speed=18.3x    \n",
      "frame=  103 fps= 20 q=-0.0 size=N/A time=00:01:34.00 bitrate=N/A speed=18.3x    \n",
      "frame=  112 fps= 20 q=-0.0 size=N/A time=00:01:43.00 bitrate=N/A speed=18.3x    \n",
      "frame=  121 fps= 20 q=-0.0 size=N/A time=00:01:52.00 bitrate=N/A speed=18.2x    \n",
      "frame=  130 fps= 20 q=-0.0 size=N/A time=00:02:01.00 bitrate=N/A speed=18.2x    \n",
      "frame=  138 fps= 19 q=-0.0 size=N/A time=00:02:09.00 bitrate=N/A speed=  18x    \n",
      "frame=  148 fps= 19 q=-0.0 size=N/A time=00:02:19.00 bitrate=N/A speed=18.2x    \n",
      "frame=  157 fps= 19 q=-0.0 size=N/A time=00:02:28.00 bitrate=N/A speed=18.1x    \n",
      "frame=  167 fps= 19 q=-0.0 size=N/A time=00:02:38.00 bitrate=N/A speed=18.2x    \n",
      "frame=  175 fps= 19 q=-0.0 size=N/A time=00:02:46.00 bitrate=N/A speed=18.1x    \n",
      "frame=  184 fps= 19 q=-0.0 size=N/A time=00:02:55.00 bitrate=N/A speed=18.1x    \n",
      "frame=  193 fps= 19 q=-0.0 size=N/A time=00:03:04.00 bitrate=N/A speed=18.1x    \n",
      "frame=  204 fps= 19 q=-0.0 size=N/A time=00:03:15.00 bitrate=N/A speed=18.3x    \n",
      "frame=  214 fps= 19 q=-0.0 size=N/A time=00:03:25.00 bitrate=N/A speed=18.4x    \n",
      "frame=  225 fps= 19 q=-0.0 size=N/A time=00:03:36.00 bitrate=N/A speed=18.5x    \n",
      "frame=  236 fps= 19 q=-0.0 size=N/A time=00:03:47.00 bitrate=N/A speed=18.7x    \n",
      "frame=  247 fps= 19 q=-0.0 size=N/A time=00:03:58.00 bitrate=N/A speed=18.8x    \n",
      "frame=  258 fps= 20 q=-0.0 size=N/A time=00:04:09.00 bitrate=N/A speed=18.9x    \n",
      "frame=  270 fps= 20 q=-0.0 size=N/A time=00:04:21.00 bitrate=N/A speed=19.1x    \n",
      "frame=  280 fps= 20 q=-0.0 size=N/A time=00:04:31.00 bitrate=N/A speed=19.1x    \n",
      "frame=  290 fps= 20 q=-0.0 size=N/A time=00:04:41.00 bitrate=N/A speed=19.1x    \n",
      "frame=  300 fps= 20 q=-0.0 Lsize=N/A time=00:05:00.00 bitrate=N/A speed=19.6x    \n",
      "video:490420kB audio:0kB subtitle:0kB other streams:0kB global headers:0kB muxing overhead: unknown\n",
      "ffmpeg version 5.0.1-essentials_build-www.gyan.dev Copyright (c) 2000-2022 the FFmpeg developers\n",
      "  built with gcc 11.2.0 (Rev7, Built by MSYS2 project)\n",
      "  configuration: --enable-gpl --enable-version3 --enable-static --disable-w32threads --disable-autodetect --enable-fontconfig --enable-iconv --enable-gnutls --enable-libxml2 --enable-gmp --enable-lzma --enable-zlib --enable-libsrt --enable-libssh --enable-libzmq --enable-avisynth --enable-sdl2 --enable-libwebp --enable-libx264 --enable-libx265 --enable-libxvid --enable-libaom --enable-libopenjpeg --enable-libvpx --enable-libass --enable-libfreetype --enable-libfribidi --enable-libvidstab --enable-libvmaf --enable-libzimg --enable-amf --enable-cuda-llvm --enable-cuvid --enable-ffnvcodec --enable-nvdec --enable-nvenc --enable-d3d11va --enable-dxva2 --enable-libmfx --enable-libgme --enable-libopenmpt --enable-libopencore-amrwb --enable-libmp3lame --enable-libtheora --enable-libvo-amrwbenc --enable-libgsm --enable-libopencore-amrnb --enable-libopus --enable-libspeex --enable-libvorbis --enable-librubberband\n",
      "  libavutil      57. 17.100 / 57. 17.100\n",
      "  libavcodec     59. 18.100 / 59. 18.100\n",
      "  libavformat    59. 16.100 / 59. 16.100\n",
      "  libavdevice    59.  4.100 / 59.  4.100\n",
      "  libavfilter     8. 24.100 /  8. 24.100\n",
      "  libswscale      6.  4.100 /  6.  4.100\n",
      "  libswresample   4.  3.100 /  4.  3.100\n",
      "  libpostproc    56.  3.100 / 56.  3.100\n",
      "Input #0, mov,mp4,m4a,3gp,3g2,mj2, from 'D:\\vol05\\3\\v3.mp4':\n",
      "  Metadata:\n",
      "    major_brand     : isom\n",
      "    minor_version   : 512\n",
      "    compatible_brands: isomiso2mp41\n",
      "    encoder         : Lavf59.16.100\n",
      "    location-eng    : +41.2071+029.0747/\n",
      "    location        : +41.2071+029.0747/\n",
      "  Duration: 00:05:00.20, start: 0.000000, bitrate: 490 kb/s\n",
      "  Stream #0:0[0x1](eng): Video: hevc (Main) (hev1 / 0x31766568), yuv420p(tv, bt709, progressive), 1920x1080 [SAR 1:1 DAR 16:9], 350 kb/s, 30 fps, 30 tbr, 15360 tbn (default)\n",
      "    Metadata:\n",
      "      handler_name    : VideoHandle\n",
      "      vendor_id       : [0][0][0][0]\n",
      "  Stream #0:1[0x2](eng): Audio: aac (LC) (mp4a / 0x6134706D), 48000 Hz, stereo, fltp, 128 kb/s (default)\n",
      "    Metadata:\n",
      "      handler_name    : SoundHandle\n",
      "      vendor_id       : [0][0][0][0]\n",
      "Stream mapping:\n",
      "  Stream #0:0 -> #0:0 (hevc (native) -> png (native))\n",
      "Press [q] to stop, [?] for help\n",
      "Output #0, image2, to 'C:\\Users\\ASABUNCUOGLU13\\Documents\\data\\vol05\\face\\frames-5\\f%d.png':\n",
      "  Metadata:\n",
      "    major_brand     : isom\n",
      "    minor_version   : 512\n",
      "    compatible_brands: isomiso2mp41\n",
      "    location        : +41.2071+029.0747/\n",
      "    location-eng    : +41.2071+029.0747/\n",
      "    encoder         : Lavf59.16.100\n",
      "  Stream #0:0(eng): Video: png, rgb24(pc, gbr/bt709/bt709, progressive), 1920x1080 [SAR 1:1 DAR 16:9], q=2-31, 200 kb/s, 1 fps, 1 tbn (default)\n",
      "    Metadata:\n",
      "      handler_name    : VideoHandle\n",
      "      vendor_id       : [0][0][0][0]\n",
      "      encoder         : Lavc59.18.100 png\n",
      "frame=    1 fps=0.0 q=0.0 size=N/A time=00:00:00.00 bitrate=N/A speed=   0x    \n",
      "frame=   12 fps=0.0 q=-0.0 size=N/A time=00:00:05.00 bitrate=N/A speed=8.32x    \n",
      "frame=   23 fps= 21 q=-0.0 size=N/A time=00:00:15.00 bitrate=N/A speed=13.6x    \n",
      "frame=   32 fps= 20 q=-0.0 size=N/A time=00:00:24.00 bitrate=N/A speed=  15x    \n",
      "frame=   42 fps= 20 q=-0.0 size=N/A time=00:00:34.00 bitrate=N/A speed=16.2x    \n",
      "frame=   51 fps= 20 q=-0.0 size=N/A time=00:00:43.00 bitrate=N/A speed=16.5x    \n",
      "frame=   61 fps= 20 q=-0.0 size=N/A time=00:00:53.00 bitrate=N/A speed=17.1x    \n",
      "frame=   72 fps= 20 q=-0.0 size=N/A time=00:01:04.00 bitrate=N/A speed=17.7x    \n",
      "frame=   83 fps= 20 q=-0.0 size=N/A time=00:01:14.00 bitrate=N/A speed=  18x    \n",
      "frame=   94 fps= 20 q=-0.0 size=N/A time=00:01:25.00 bitrate=N/A speed=18.4x    \n",
      "frame=  104 fps= 20 q=-0.0 size=N/A time=00:01:35.00 bitrate=N/A speed=18.5x    \n",
      "frame=  115 fps= 20 q=-0.0 size=N/A time=00:01:46.00 bitrate=N/A speed=18.8x    \n",
      "frame=  126 fps= 21 q=-0.0 size=N/A time=00:01:57.00 bitrate=N/A speed=19.1x    \n",
      "frame=  136 fps= 20 q=-0.0 size=N/A time=00:02:07.00 bitrate=N/A speed=19.1x    \n",
      "frame=  147 fps= 21 q=-0.0 size=N/A time=00:02:18.00 bitrate=N/A speed=19.3x    \n",
      "frame=  159 fps= 21 q=-0.0 size=N/A time=00:02:30.00 bitrate=N/A speed=19.6x    \n",
      "frame=  170 fps= 21 q=-0.0 size=N/A time=00:02:41.00 bitrate=N/A speed=19.8x    \n",
      "frame=  181 fps= 21 q=-0.0 size=N/A time=00:02:52.00 bitrate=N/A speed=19.9x    \n",
      "frame=  191 fps= 21 q=-0.0 size=N/A time=00:03:02.00 bitrate=N/A speed=19.9x    \n",
      "frame=  201 fps= 21 q=-0.0 size=N/A time=00:03:12.00 bitrate=N/A speed=19.9x    \n",
      "frame=  211 fps= 21 q=-0.0 size=N/A time=00:03:22.00 bitrate=N/A speed=19.9x    \n",
      "frame=  222 fps= 21 q=-0.0 size=N/A time=00:03:33.00 bitrate=N/A speed=  20x    \n",
      "frame=  232 fps= 21 q=-0.0 size=N/A time=00:03:43.00 bitrate=N/A speed=  20x    \n",
      "frame=  244 fps= 21 q=-0.0 size=N/A time=00:03:54.00 bitrate=N/A speed=  20x    \n",
      "frame=  255 fps= 21 q=-0.0 size=N/A time=00:04:05.00 bitrate=N/A speed=20.1x    \n",
      "frame=  265 fps= 21 q=-0.0 size=N/A time=00:04:15.00 bitrate=N/A speed=20.1x    \n",
      "frame=  276 fps= 21 q=-0.0 size=N/A time=00:04:26.00 bitrate=N/A speed=20.2x    \n",
      "frame=  287 fps= 21 q=-0.0 size=N/A time=00:04:37.00 bitrate=N/A speed=20.2x    \n",
      "frame=  298 fps= 21 q=-0.0 size=N/A time=00:04:48.00 bitrate=N/A speed=20.3x    \n",
      "frame=  300 fps= 21 q=-0.0 Lsize=N/A time=00:05:00.00 bitrate=N/A speed=20.8x    \n",
      "video:470261kB audio:0kB subtitle:0kB other streams:0kB global headers:0kB muxing overhead: unknown\n",
      "ffmpeg version 5.0.1-essentials_build-www.gyan.dev Copyright (c) 2000-2022 the FFmpeg developers\n",
      "  built with gcc 11.2.0 (Rev7, Built by MSYS2 project)\n",
      "  configuration: --enable-gpl --enable-version3 --enable-static --disable-w32threads --disable-autodetect --enable-fontconfig --enable-iconv --enable-gnutls --enable-libxml2 --enable-gmp --enable-lzma --enable-zlib --enable-libsrt --enable-libssh --enable-libzmq --enable-avisynth --enable-sdl2 --enable-libwebp --enable-libx264 --enable-libx265 --enable-libxvid --enable-libaom --enable-libopenjpeg --enable-libvpx --enable-libass --enable-libfreetype --enable-libfribidi --enable-libvidstab --enable-libvmaf --enable-libzimg --enable-amf --enable-cuda-llvm --enable-cuvid --enable-ffnvcodec --enable-nvdec --enable-nvenc --enable-d3d11va --enable-dxva2 --enable-libmfx --enable-libgme --enable-libopenmpt --enable-libopencore-amrwb --enable-libmp3lame --enable-libtheora --enable-libvo-amrwbenc --enable-libgsm --enable-libopencore-amrnb --enable-libopus --enable-libspeex --enable-libvorbis --enable-librubberband\n",
      "  libavutil      57. 17.100 / 57. 17.100\n",
      "  libavcodec     59. 18.100 / 59. 18.100\n",
      "  libavformat    59. 16.100 / 59. 16.100\n",
      "  libavdevice    59.  4.100 / 59.  4.100\n",
      "  libavfilter     8. 24.100 /  8. 24.100\n",
      "  libswscale      6.  4.100 /  6.  4.100\n",
      "  libswresample   4.  3.100 /  4.  3.100\n",
      "  libpostproc    56.  3.100 / 56.  3.100\n",
      "Input #0, mov,mp4,m4a,3gp,3g2,mj2, from 'D:\\vol05\\3\\v4.mp4':\n",
      "  Metadata:\n",
      "    major_brand     : isom\n",
      "    minor_version   : 512\n",
      "    compatible_brands: isomiso2mp41\n",
      "    encoder         : Lavf59.16.100\n",
      "    location-eng    : +41.2071+029.0747/\n",
      "    location        : +41.2071+029.0747/\n",
      "  Duration: 00:05:00.13, start: 0.000000, bitrate: 478 kb/s\n",
      "  Stream #0:0[0x1](eng): Video: hevc (Main) (hev1 / 0x31766568), yuv420p(tv, bt709, progressive), 1920x1080 [SAR 1:1 DAR 16:9], 338 kb/s, 30 fps, 30 tbr, 15360 tbn (default)\n",
      "    Metadata:\n",
      "      handler_name    : VideoHandle\n",
      "      vendor_id       : [0][0][0][0]\n",
      "  Stream #0:1[0x2](eng): Audio: aac (LC) (mp4a / 0x6134706D), 48000 Hz, stereo, fltp, 128 kb/s (default)\n",
      "    Metadata:\n",
      "      handler_name    : SoundHandle\n",
      "      vendor_id       : [0][0][0][0]\n",
      "Stream mapping:\n",
      "  Stream #0:0 -> #0:0 (hevc (native) -> png (native))\n",
      "Press [q] to stop, [?] for help\n",
      "Output #0, image2, to 'C:\\Users\\ASABUNCUOGLU13\\Documents\\data\\vol05\\face\\frames-6\\f%d.png':\n",
      "  Metadata:\n",
      "    major_brand     : isom\n",
      "    minor_version   : 512\n",
      "    compatible_brands: isomiso2mp41\n",
      "    location        : +41.2071+029.0747/\n",
      "    location-eng    : +41.2071+029.0747/\n",
      "    encoder         : Lavf59.16.100\n",
      "  Stream #0:0(eng): Video: png, rgb24(pc, gbr/bt709/bt709, progressive), 1920x1080 [SAR 1:1 DAR 16:9], q=2-31, 200 kb/s, 1 fps, 1 tbn (default)\n",
      "    Metadata:\n",
      "      handler_name    : VideoHandle\n",
      "      vendor_id       : [0][0][0][0]\n",
      "      encoder         : Lavc59.18.100 png\n",
      "frame=    1 fps=0.0 q=0.0 size=N/A time=00:00:00.00 bitrate=N/A speed=   0x    \n",
      "frame=   13 fps=0.0 q=-0.0 size=N/A time=00:00:05.00 bitrate=N/A speed=8.22x    \n",
      "frame=   25 fps= 23 q=-0.0 size=N/A time=00:00:15.00 bitrate=N/A speed=13.5x    \n",
      "frame=   36 fps= 22 q=-0.0 size=N/A time=00:00:26.00 bitrate=N/A speed=16.2x    \n",
      "frame=   47 fps= 22 q=-0.0 size=N/A time=00:00:37.00 bitrate=N/A speed=17.5x    \n",
      "frame=   58 fps= 22 q=-0.0 size=N/A time=00:00:48.00 bitrate=N/A speed=18.3x    \n",
      "frame=   70 fps= 22 q=-0.0 size=N/A time=00:01:00.00 bitrate=N/A speed=19.2x    \n",
      "frame=   80 fps= 22 q=-0.0 size=N/A time=00:01:10.00 bitrate=N/A speed=19.3x    \n",
      "frame=   91 fps= 22 q=-0.0 size=N/A time=00:01:21.00 bitrate=N/A speed=19.6x    \n",
      "frame=  101 fps= 22 q=-0.0 size=N/A time=00:01:31.00 bitrate=N/A speed=19.6x    \n",
      "frame=  112 fps= 22 q=-0.0 size=N/A time=00:01:42.00 bitrate=N/A speed=19.8x    \n",
      "frame=  123 fps= 22 q=-0.0 size=N/A time=00:01:53.00 bitrate=N/A speed=  20x    \n",
      "frame=  132 fps= 21 q=-0.0 size=N/A time=00:02:02.00 bitrate=N/A speed=19.9x    \n",
      "frame=  143 fps= 22 q=-0.0 size=N/A time=00:02:13.00 bitrate=N/A speed=  20x    \n",
      "frame=  154 fps= 22 q=-0.0 size=N/A time=00:02:24.00 bitrate=N/A speed=20.2x    \n",
      "frame=  165 fps= 22 q=-0.0 size=N/A time=00:02:35.00 bitrate=N/A speed=20.2x    \n",
      "frame=  176 fps= 22 q=-0.0 size=N/A time=00:02:46.00 bitrate=N/A speed=20.3x    \n",
      "frame=  188 fps= 22 q=-0.0 size=N/A time=00:02:58.00 bitrate=N/A speed=20.6x    \n",
      "frame=  198 fps= 22 q=-0.0 size=N/A time=00:03:08.00 bitrate=N/A speed=20.5x    \n",
      "frame=  207 fps= 21 q=-0.0 size=N/A time=00:03:17.00 bitrate=N/A speed=20.4x    \n",
      "frame=  218 fps= 21 q=-0.0 size=N/A time=00:03:28.00 bitrate=N/A speed=20.5x    \n",
      "frame=  228 fps= 21 q=-0.0 size=N/A time=00:03:38.00 bitrate=N/A speed=20.4x    \n",
      "frame=  239 fps= 21 q=-0.0 size=N/A time=00:03:49.00 bitrate=N/A speed=20.5x    \n",
      "frame=  250 fps= 21 q=-0.0 size=N/A time=00:04:00.00 bitrate=N/A speed=20.6x    \n",
      "frame=  261 fps= 21 q=-0.0 size=N/A time=00:04:11.00 bitrate=N/A speed=20.6x    \n",
      "frame=  270 fps= 21 q=-0.0 size=N/A time=00:04:20.00 bitrate=N/A speed=20.5x    \n",
      "frame=  280 fps= 21 q=-0.0 size=N/A time=00:04:30.00 bitrate=N/A speed=20.5x    \n",
      "frame=  291 fps= 21 q=-0.0 size=N/A time=00:04:41.00 bitrate=N/A speed=20.5x    \n",
      "frame=  300 fps= 21 q=-0.0 size=N/A time=00:04:50.00 bitrate=N/A speed=20.4x    \n",
      "frame=  300 fps= 21 q=-0.0 Lsize=N/A time=00:05:00.00 bitrate=N/A speed=20.9x    \n",
      "video:457646kB audio:0kB subtitle:0kB other streams:0kB global headers:0kB muxing overhead: unknown\n",
      "ffmpeg version 5.0.1-essentials_build-www.gyan.dev Copyright (c) 2000-2022 the FFmpeg developers\n",
      "  built with gcc 11.2.0 (Rev7, Built by MSYS2 project)\n",
      "  configuration: --enable-gpl --enable-version3 --enable-static --disable-w32threads --disable-autodetect --enable-fontconfig --enable-iconv --enable-gnutls --enable-libxml2 --enable-gmp --enable-lzma --enable-zlib --enable-libsrt --enable-libssh --enable-libzmq --enable-avisynth --enable-sdl2 --enable-libwebp --enable-libx264 --enable-libx265 --enable-libxvid --enable-libaom --enable-libopenjpeg --enable-libvpx --enable-libass --enable-libfreetype --enable-libfribidi --enable-libvidstab --enable-libvmaf --enable-libzimg --enable-amf --enable-cuda-llvm --enable-cuvid --enable-ffnvcodec --enable-nvdec --enable-nvenc --enable-d3d11va --enable-dxva2 --enable-libmfx --enable-libgme --enable-libopenmpt --enable-libopencore-amrwb --enable-libmp3lame --enable-libtheora --enable-libvo-amrwbenc --enable-libgsm --enable-libopencore-amrnb --enable-libopus --enable-libspeex --enable-libvorbis --enable-librubberband\n",
      "  libavutil      57. 17.100 / 57. 17.100\n",
      "  libavcodec     59. 18.100 / 59. 18.100\n",
      "  libavformat    59. 16.100 / 59. 16.100\n",
      "  libavdevice    59.  4.100 / 59.  4.100\n",
      "  libavfilter     8. 24.100 /  8. 24.100\n",
      "  libswscale      6.  4.100 /  6.  4.100\n",
      "  libswresample   4.  3.100 /  4.  3.100\n",
      "  libpostproc    56.  3.100 / 56.  3.100\n",
      "Input #0, mov,mp4,m4a,3gp,3g2,mj2, from 'D:\\vol05\\3\\v5.mp4':\n",
      "  Metadata:\n",
      "    major_brand     : isom\n",
      "    minor_version   : 512\n",
      "    compatible_brands: isomiso2mp41\n",
      "    encoder         : Lavf59.16.100\n",
      "    location-eng    : +41.2071+029.0747/\n",
      "    location        : +41.2071+029.0747/\n",
      "  Duration: 00:05:00.20, start: 0.000000, bitrate: 486 kb/s\n",
      "  Stream #0:0[0x1](eng): Video: hevc (Main) (hev1 / 0x31766568), yuv420p(tv, bt709, progressive), 1920x1080 [SAR 1:1 DAR 16:9], 346 kb/s, 30 fps, 30 tbr, 15360 tbn (default)\n",
      "    Metadata:\n",
      "      handler_name    : VideoHandle\n",
      "      vendor_id       : [0][0][0][0]\n",
      "  Stream #0:1[0x2](eng): Audio: aac (LC) (mp4a / 0x6134706D), 48000 Hz, stereo, fltp, 128 kb/s (default)\n",
      "    Metadata:\n",
      "      handler_name    : SoundHandle\n",
      "      vendor_id       : [0][0][0][0]\n",
      "Stream mapping:\n",
      "  Stream #0:0 -> #0:0 (hevc (native) -> png (native))\n",
      "Press [q] to stop, [?] for help\n",
      "Output #0, image2, to 'C:\\Users\\ASABUNCUOGLU13\\Documents\\data\\vol05\\face\\frames-7\\f%d.png':\n",
      "  Metadata:\n",
      "    major_brand     : isom\n",
      "    minor_version   : 512\n",
      "    compatible_brands: isomiso2mp41\n",
      "    location        : +41.2071+029.0747/\n",
      "    location-eng    : +41.2071+029.0747/\n",
      "    encoder         : Lavf59.16.100\n",
      "  Stream #0:0(eng): Video: png, rgb24(pc, gbr/bt709/bt709, progressive), 1920x1080 [SAR 1:1 DAR 16:9], q=2-31, 200 kb/s, 1 fps, 1 tbn (default)\n",
      "    Metadata:\n",
      "      handler_name    : VideoHandle\n",
      "      vendor_id       : [0][0][0][0]\n",
      "      encoder         : Lavc59.18.100 png\n",
      "frame=    1 fps=0.0 q=0.0 size=N/A time=00:00:00.00 bitrate=N/A speed=   0x    \n",
      "frame=    8 fps=0.0 q=-0.0 size=N/A time=00:00:02.00 bitrate=N/A speed=   3x    \n",
      "frame=   17 fps= 15 q=-0.0 size=N/A time=00:00:10.00 bitrate=N/A speed=8.56x    \n",
      "frame=   28 fps= 17 q=-0.0 size=N/A time=00:00:20.00 bitrate=N/A speed=  12x    \n",
      "frame=   40 fps= 18 q=-0.0 size=N/A time=00:00:32.00 bitrate=N/A speed=14.7x    \n",
      "frame=   49 fps= 18 q=-0.0 size=N/A time=00:00:41.00 bitrate=N/A speed=15.3x    \n",
      "frame=   59 fps= 19 q=-0.0 size=N/A time=00:00:51.00 bitrate=N/A speed=16.1x    \n",
      "frame=   70 fps= 19 q=-0.0 size=N/A time=00:01:02.00 bitrate=N/A speed=16.8x    \n",
      "frame=   82 fps= 20 q=-0.0 size=N/A time=00:01:14.00 bitrate=N/A speed=17.6x    \n",
      "frame=   93 fps= 20 q=-0.0 size=N/A time=00:01:24.00 bitrate=N/A speed=17.9x    \n",
      "frame=  103 fps= 20 q=-0.0 size=N/A time=00:01:34.00 bitrate=N/A speed=  18x    \n",
      "frame=  115 fps= 20 q=-0.0 size=N/A time=00:01:46.00 bitrate=N/A speed=18.6x    \n",
      "frame=  125 fps= 20 q=-0.0 size=N/A time=00:01:56.00 bitrate=N/A speed=18.7x    \n",
      "frame=  136 fps= 20 q=-0.0 size=N/A time=00:02:07.00 bitrate=N/A speed=18.9x    \n",
      "frame=  147 fps= 20 q=-0.0 size=N/A time=00:02:18.00 bitrate=N/A speed=19.1x    \n",
      "frame=  158 fps= 20 q=-0.0 size=N/A time=00:02:29.00 bitrate=N/A speed=19.3x    \n",
      "frame=  170 fps= 21 q=-0.0 size=N/A time=00:02:40.00 bitrate=N/A speed=19.5x    \n",
      "frame=  181 fps= 21 q=-0.0 size=N/A time=00:02:51.00 bitrate=N/A speed=19.6x    \n",
      "frame=  192 fps= 21 q=-0.0 size=N/A time=00:03:02.00 bitrate=N/A speed=19.7x    \n",
      "frame=  203 fps= 21 q=-0.0 size=N/A time=00:03:13.00 bitrate=N/A speed=19.8x    \n",
      "frame=  214 fps= 21 q=-0.0 size=N/A time=00:03:24.00 bitrate=N/A speed=19.9x    \n",
      "frame=  223 fps= 21 q=-0.0 size=N/A time=00:03:33.00 bitrate=N/A speed=19.9x    \n",
      "frame=  233 fps= 21 q=-0.0 size=N/A time=00:03:43.00 bitrate=N/A speed=19.9x    \n",
      "frame=  243 fps= 21 q=-0.0 size=N/A time=00:03:53.00 bitrate=N/A speed=19.9x    \n",
      "frame=  253 fps= 21 q=-0.0 size=N/A time=00:04:03.00 bitrate=N/A speed=19.8x    \n",
      "frame=  263 fps= 21 q=-0.0 size=N/A time=00:04:13.00 bitrate=N/A speed=19.8x    \n",
      "frame=  273 fps= 21 q=-0.0 size=N/A time=00:04:23.00 bitrate=N/A speed=19.9x    \n",
      "frame=  283 fps= 21 q=-0.0 size=N/A time=00:04:33.00 bitrate=N/A speed=19.9x    \n",
      "frame=  293 fps= 21 q=-0.0 size=N/A time=00:04:43.00 bitrate=N/A speed=19.9x    \n",
      "frame=  300 fps= 20 q=-0.0 Lsize=N/A time=00:05:00.00 bitrate=N/A speed=20.3x    \n",
      "video:452796kB audio:0kB subtitle:0kB other streams:0kB global headers:0kB muxing overhead: unknown\n",
      "ffmpeg version 5.0.1-essentials_build-www.gyan.dev Copyright (c) 2000-2022 the FFmpeg developers\n",
      "  built with gcc 11.2.0 (Rev7, Built by MSYS2 project)\n",
      "  configuration: --enable-gpl --enable-version3 --enable-static --disable-w32threads --disable-autodetect --enable-fontconfig --enable-iconv --enable-gnutls --enable-libxml2 --enable-gmp --enable-lzma --enable-zlib --enable-libsrt --enable-libssh --enable-libzmq --enable-avisynth --enable-sdl2 --enable-libwebp --enable-libx264 --enable-libx265 --enable-libxvid --enable-libaom --enable-libopenjpeg --enable-libvpx --enable-libass --enable-libfreetype --enable-libfribidi --enable-libvidstab --enable-libvmaf --enable-libzimg --enable-amf --enable-cuda-llvm --enable-cuvid --enable-ffnvcodec --enable-nvdec --enable-nvenc --enable-d3d11va --enable-dxva2 --enable-libmfx --enable-libgme --enable-libopenmpt --enable-libopencore-amrwb --enable-libmp3lame --enable-libtheora --enable-libvo-amrwbenc --enable-libgsm --enable-libopencore-amrnb --enable-libopus --enable-libspeex --enable-libvorbis --enable-librubberband\n",
      "  libavutil      57. 17.100 / 57. 17.100\n",
      "  libavcodec     59. 18.100 / 59. 18.100\n",
      "  libavformat    59. 16.100 / 59. 16.100\n",
      "  libavdevice    59.  4.100 / 59.  4.100\n",
      "  libavfilter     8. 24.100 /  8. 24.100\n",
      "  libswscale      6.  4.100 /  6.  4.100\n",
      "  libswresample   4.  3.100 /  4.  3.100\n",
      "  libpostproc    56.  3.100 / 56.  3.100\n",
      "Input #0, mov,mp4,m4a,3gp,3g2,mj2, from 'D:\\vol05\\3\\v6.mp4':\n",
      "  Metadata:\n",
      "    major_brand     : isom\n",
      "    minor_version   : 512\n",
      "    compatible_brands: isomiso2mp41\n",
      "    encoder         : Lavf59.16.100\n",
      "    location-eng    : +41.2071+029.0747/\n",
      "    location        : +41.2071+029.0747/\n",
      "  Duration: 00:04:27.10, start: 0.000000, bitrate: 618 kb/s\n",
      "  Stream #0:0[0x1](eng): Video: hevc (Main) (hev1 / 0x31766568), yuv420p(tv, bt709, progressive), 1920x1080 [SAR 1:1 DAR 16:9], 476 kb/s, 30 fps, 30 tbr, 15360 tbn (default)\n",
      "    Metadata:\n",
      "      handler_name    : VideoHandle\n",
      "      vendor_id       : [0][0][0][0]\n",
      "  Stream #0:1[0x2](eng): Audio: aac (LC) (mp4a / 0x6134706D), 48000 Hz, stereo, fltp, 128 kb/s (default)\n",
      "    Metadata:\n",
      "      handler_name    : SoundHandle\n",
      "      vendor_id       : [0][0][0][0]\n",
      "Stream mapping:\n",
      "  Stream #0:0 -> #0:0 (hevc (native) -> png (native))\n",
      "Press [q] to stop, [?] for help\n",
      "Output #0, image2, to 'C:\\Users\\ASABUNCUOGLU13\\Documents\\data\\vol05\\face\\frames-8\\f%d.png':\n",
      "  Metadata:\n",
      "    major_brand     : isom\n",
      "    minor_version   : 512\n",
      "    compatible_brands: isomiso2mp41\n",
      "    location        : +41.2071+029.0747/\n",
      "    location-eng    : +41.2071+029.0747/\n",
      "    encoder         : Lavf59.16.100\n",
      "  Stream #0:0(eng): Video: png, rgb24(pc, gbr/bt709/bt709, progressive), 1920x1080 [SAR 1:1 DAR 16:9], q=2-31, 200 kb/s, 1 fps, 1 tbn (default)\n",
      "    Metadata:\n",
      "      handler_name    : VideoHandle\n",
      "      vendor_id       : [0][0][0][0]\n",
      "      encoder         : Lavc59.18.100 png\n",
      "frame=    1 fps=0.0 q=0.0 size=N/A time=00:00:00.00 bitrate=N/A speed=   0x    \n",
      "frame=   12 fps=0.0 q=-0.0 size=N/A time=00:00:05.00 bitrate=N/A speed=8.13x    \n",
      "frame=   22 fps= 20 q=-0.0 size=N/A time=00:00:14.00 bitrate=N/A speed=12.5x    \n",
      "frame=   32 fps= 20 q=-0.0 size=N/A time=00:00:24.00 bitrate=N/A speed=14.8x    \n",
      "frame=   42 fps= 20 q=-0.0 size=N/A time=00:00:34.00 bitrate=N/A speed=16.1x    \n",
      "frame=   52 fps= 20 q=-0.0 size=N/A time=00:00:44.00 bitrate=N/A speed=16.8x    \n",
      "frame=   62 fps= 20 q=-0.0 size=N/A time=00:00:54.00 bitrate=N/A speed=17.3x    \n",
      "frame=   73 fps= 20 q=-0.0 size=N/A time=00:01:05.00 bitrate=N/A speed=17.9x    \n",
      "frame=   83 fps= 20 q=-0.0 size=N/A time=00:01:15.00 bitrate=N/A speed=18.2x    \n",
      "frame=   94 fps= 20 q=-0.0 size=N/A time=00:01:26.00 bitrate=N/A speed=18.6x    \n",
      "frame=  104 fps= 20 q=-0.0 size=N/A time=00:01:36.00 bitrate=N/A speed=18.7x    \n",
      "frame=  115 fps= 20 q=-0.0 size=N/A time=00:01:47.00 bitrate=N/A speed=  19x    \n",
      "frame=  125 fps= 20 q=-0.0 size=N/A time=00:01:57.00 bitrate=N/A speed=19.1x    \n",
      "frame=  134 fps= 20 q=-0.0 size=N/A time=00:02:06.00 bitrate=N/A speed=  19x    \n",
      "frame=  144 fps= 20 q=-0.0 size=N/A time=00:02:16.00 bitrate=N/A speed=  19x    \n",
      "frame=  153 fps= 20 q=-0.0 size=N/A time=00:02:25.00 bitrate=N/A speed=  19x    \n",
      "frame=  162 fps= 20 q=-0.0 size=N/A time=00:02:34.00 bitrate=N/A speed=18.9x    \n",
      "frame=  172 fps= 20 q=-0.0 size=N/A time=00:02:44.00 bitrate=N/A speed=  19x    \n",
      "frame=  182 fps= 20 q=-0.0 size=N/A time=00:02:54.00 bitrate=N/A speed=  19x    \n",
      "frame=  191 fps= 20 q=-0.0 size=N/A time=00:03:03.00 bitrate=N/A speed=18.9x    \n",
      "frame=  202 fps= 20 q=-0.0 size=N/A time=00:03:14.00 bitrate=N/A speed=19.1x    \n",
      "frame=  212 fps= 20 q=-0.0 size=N/A time=00:03:24.00 bitrate=N/A speed=19.1x    \n",
      "frame=  221 fps= 20 q=-0.0 size=N/A time=00:03:33.00 bitrate=N/A speed=19.1x    \n",
      "frame=  231 fps= 20 q=-0.0 size=N/A time=00:03:43.00 bitrate=N/A speed=19.1x    \n",
      "frame=  241 fps= 20 q=-0.0 size=N/A time=00:03:53.00 bitrate=N/A speed=19.1x    \n",
      "frame=  250 fps= 20 q=-0.0 size=N/A time=00:04:02.00 bitrate=N/A speed=19.1x    \n",
      "frame=  261 fps= 20 q=-0.0 size=N/A time=00:04:13.00 bitrate=N/A speed=19.2x    \n",
      "frame=  267 fps= 20 q=-0.0 Lsize=N/A time=00:04:27.00 bitrate=N/A speed=19.6x    \n",
      "video:426029kB audio:0kB subtitle:0kB other streams:0kB global headers:0kB muxing overhead: unknown\n",
      "ffmpeg version 5.0.1-essentials_build-www.gyan.dev Copyright (c) 2000-2022 the FFmpeg developers\n",
      "  built with gcc 11.2.0 (Rev7, Built by MSYS2 project)\n",
      "  configuration: --enable-gpl --enable-version3 --enable-static --disable-w32threads --disable-autodetect --enable-fontconfig --enable-iconv --enable-gnutls --enable-libxml2 --enable-gmp --enable-lzma --enable-zlib --enable-libsrt --enable-libssh --enable-libzmq --enable-avisynth --enable-sdl2 --enable-libwebp --enable-libx264 --enable-libx265 --enable-libxvid --enable-libaom --enable-libopenjpeg --enable-libvpx --enable-libass --enable-libfreetype --enable-libfribidi --enable-libvidstab --enable-libvmaf --enable-libzimg --enable-amf --enable-cuda-llvm --enable-cuvid --enable-ffnvcodec --enable-nvdec --enable-nvenc --enable-d3d11va --enable-dxva2 --enable-libmfx --enable-libgme --enable-libopenmpt --enable-libopencore-amrwb --enable-libmp3lame --enable-libtheora --enable-libvo-amrwbenc --enable-libgsm --enable-libopencore-amrnb --enable-libopus --enable-libspeex --enable-libvorbis --enable-librubberband\n",
      "  libavutil      57. 17.100 / 57. 17.100\n",
      "  libavcodec     59. 18.100 / 59. 18.100\n",
      "  libavformat    59. 16.100 / 59. 16.100\n",
      "  libavdevice    59.  4.100 / 59.  4.100\n",
      "  libavfilter     8. 24.100 /  8. 24.100\n",
      "  libswscale      6.  4.100 /  6.  4.100\n",
      "  libswresample   4.  3.100 /  4.  3.100\n",
      "  libpostproc    56.  3.100 / 56.  3.100\n",
      "Input #0, mov,mp4,m4a,3gp,3g2,mj2, from 'D:\\vol05\\3\\v7.mp4':\n",
      "  Metadata:\n",
      "    major_brand     : isom\n",
      "    minor_version   : 512\n",
      "    compatible_brands: isomiso2mp41\n",
      "    encoder         : Lavf59.16.100\n",
      "    location-eng    : +41.2071+029.0747/\n",
      "    location        : +41.2071+029.0747/\n",
      "  Duration: 00:05:00.07, start: 0.000000, bitrate: 511 kb/s\n",
      "  Stream #0:0[0x1](eng): Video: hevc (Main) (hev1 / 0x31766568), yuv420p(tv, bt709, progressive), 1920x1080 [SAR 1:1 DAR 16:9], 370 kb/s, 30 fps, 30 tbr, 15360 tbn (default)\n",
      "    Metadata:\n",
      "      handler_name    : VideoHandle\n",
      "      vendor_id       : [0][0][0][0]\n",
      "  Stream #0:1[0x2](eng): Audio: aac (LC) (mp4a / 0x6134706D), 48000 Hz, stereo, fltp, 128 kb/s (default)\n",
      "    Metadata:\n",
      "      handler_name    : SoundHandle\n",
      "      vendor_id       : [0][0][0][0]\n",
      "Stream mapping:\n",
      "  Stream #0:0 -> #0:0 (hevc (native) -> png (native))\n",
      "Press [q] to stop, [?] for help\n",
      "Output #0, image2, to 'C:\\Users\\ASABUNCUOGLU13\\Documents\\data\\vol05\\face\\frames-9\\f%d.png':\n",
      "  Metadata:\n",
      "    major_brand     : isom\n",
      "    minor_version   : 512\n",
      "    compatible_brands: isomiso2mp41\n",
      "    location        : +41.2071+029.0747/\n",
      "    location-eng    : +41.2071+029.0747/\n",
      "    encoder         : Lavf59.16.100\n",
      "  Stream #0:0(eng): Video: png, rgb24(pc, gbr/bt709/bt709, progressive), 1920x1080 [SAR 1:1 DAR 16:9], q=2-31, 200 kb/s, 1 fps, 1 tbn (default)\n",
      "    Metadata:\n",
      "      handler_name    : VideoHandle\n",
      "      vendor_id       : [0][0][0][0]\n",
      "      encoder         : Lavc59.18.100 png\n",
      "frame=    1 fps=0.0 q=0.0 size=N/A time=00:00:00.00 bitrate=N/A speed=   0x    \n",
      "frame=   12 fps=0.0 q=-0.0 size=N/A time=00:00:04.00 bitrate=N/A speed=6.38x    \n",
      "frame=   22 fps= 20 q=-0.0 size=N/A time=00:00:14.00 bitrate=N/A speed=12.4x    \n",
      "frame=   33 fps= 20 q=-0.0 size=N/A time=00:00:25.00 bitrate=N/A speed=15.4x    \n",
      "frame=   43 fps= 20 q=-0.0 size=N/A time=00:00:35.00 bitrate=N/A speed=16.4x    \n",
      "frame=   53 fps= 20 q=-0.0 size=N/A time=00:00:45.00 bitrate=N/A speed=17.1x    \n",
      "frame=   64 fps= 20 q=-0.0 size=N/A time=00:00:55.00 bitrate=N/A speed=17.5x    \n",
      "frame=   74 fps= 20 q=-0.0 size=N/A time=00:01:05.00 bitrate=N/A speed=17.9x    \n",
      "frame=   84 fps= 20 q=-0.0 size=N/A time=00:01:15.00 bitrate=N/A speed=18.1x    \n",
      "frame=   95 fps= 20 q=-0.0 size=N/A time=00:01:26.00 bitrate=N/A speed=18.5x    \n",
      "frame=  105 fps= 20 q=-0.0 size=N/A time=00:01:36.00 bitrate=N/A speed=18.6x    \n",
      "frame=  115 fps= 20 q=-0.0 size=N/A time=00:01:46.00 bitrate=N/A speed=18.8x    \n",
      "frame=  126 fps= 20 q=-0.0 size=N/A time=00:01:57.00 bitrate=N/A speed=  19x    \n",
      "frame=  137 fps= 21 q=-0.0 size=N/A time=00:02:08.00 bitrate=N/A speed=19.2x    \n",
      "frame=  147 fps= 21 q=-0.0 size=N/A time=00:02:18.00 bitrate=N/A speed=19.3x    \n",
      "frame=  158 fps= 21 q=-0.0 size=N/A time=00:02:29.00 bitrate=N/A speed=19.5x    \n",
      "frame=  168 fps= 21 q=-0.0 size=N/A time=00:02:39.00 bitrate=N/A speed=19.5x    \n",
      "frame=  179 fps= 21 q=-0.0 size=N/A time=00:02:50.00 bitrate=N/A speed=19.6x    \n",
      "frame=  189 fps= 21 q=-0.0 size=N/A time=00:03:00.00 bitrate=N/A speed=19.7x    \n",
      "frame=  199 fps= 21 q=-0.0 size=N/A time=00:03:10.00 bitrate=N/A speed=19.7x    \n",
      "frame=  208 fps= 20 q=-0.0 size=N/A time=00:03:19.00 bitrate=N/A speed=19.6x    \n",
      "frame=  219 fps= 21 q=-0.0 size=N/A time=00:03:30.00 bitrate=N/A speed=19.7x    \n",
      "frame=  229 fps= 21 q=-0.0 size=N/A time=00:03:40.00 bitrate=N/A speed=19.7x    \n",
      "frame=  239 fps= 20 q=-0.0 size=N/A time=00:03:50.00 bitrate=N/A speed=19.7x    \n",
      "frame=  250 fps= 21 q=-0.0 size=N/A time=00:04:01.00 bitrate=N/A speed=19.8x    \n",
      "frame=  260 fps= 21 q=-0.0 size=N/A time=00:04:11.00 bitrate=N/A speed=19.8x    \n",
      "frame=  270 fps= 20 q=-0.0 size=N/A time=00:04:21.00 bitrate=N/A speed=19.8x    \n",
      "frame=  280 fps= 20 q=-0.0 size=N/A time=00:04:31.00 bitrate=N/A speed=19.8x    \n",
      "frame=  290 fps= 20 q=-0.0 size=N/A time=00:04:41.00 bitrate=N/A speed=19.8x    \n",
      "frame=  300 fps= 20 q=-0.0 size=N/A time=00:04:51.00 bitrate=N/A speed=19.8x    \n",
      "frame=  300 fps= 20 q=-0.0 Lsize=N/A time=00:05:00.00 bitrate=N/A speed=20.2x    \n",
      "video:488415kB audio:0kB subtitle:0kB other streams:0kB global headers:0kB muxing overhead: unknown\n",
      "ffmpeg version 5.0.1-essentials_build-www.gyan.dev Copyright (c) 2000-2022 the FFmpeg developers\n",
      "  built with gcc 11.2.0 (Rev7, Built by MSYS2 project)\n",
      "  configuration: --enable-gpl --enable-version3 --enable-static --disable-w32threads --disable-autodetect --enable-fontconfig --enable-iconv --enable-gnutls --enable-libxml2 --enable-gmp --enable-lzma --enable-zlib --enable-libsrt --enable-libssh --enable-libzmq --enable-avisynth --enable-sdl2 --enable-libwebp --enable-libx264 --enable-libx265 --enable-libxvid --enable-libaom --enable-libopenjpeg --enable-libvpx --enable-libass --enable-libfreetype --enable-libfribidi --enable-libvidstab --enable-libvmaf --enable-libzimg --enable-amf --enable-cuda-llvm --enable-cuvid --enable-ffnvcodec --enable-nvdec --enable-nvenc --enable-d3d11va --enable-dxva2 --enable-libmfx --enable-libgme --enable-libopenmpt --enable-libopencore-amrwb --enable-libmp3lame --enable-libtheora --enable-libvo-amrwbenc --enable-libgsm --enable-libopencore-amrnb --enable-libopus --enable-libspeex --enable-libvorbis --enable-librubberband\n",
      "  libavutil      57. 17.100 / 57. 17.100\n",
      "  libavcodec     59. 18.100 / 59. 18.100\n",
      "  libavformat    59. 16.100 / 59. 16.100\n",
      "  libavdevice    59.  4.100 / 59.  4.100\n",
      "  libavfilter     8. 24.100 /  8. 24.100\n",
      "  libswscale      6.  4.100 /  6.  4.100\n",
      "  libswresample   4.  3.100 /  4.  3.100\n",
      "  libpostproc    56.  3.100 / 56.  3.100\n",
      "Input #0, mov,mp4,m4a,3gp,3g2,mj2, from 'D:\\vol05\\3\\v8.mp4':\n",
      "  Metadata:\n",
      "    major_brand     : isom\n",
      "    minor_version   : 512\n",
      "    compatible_brands: isomiso2mp41\n",
      "    encoder         : Lavf59.16.100\n",
      "    location-eng    : +41.2071+029.0747/\n",
      "    location        : +41.2071+029.0747/\n",
      "  Duration: 00:05:00.10, start: 0.000000, bitrate: 514 kb/s\n",
      "  Stream #0:0[0x1](eng): Video: hevc (Main) (hev1 / 0x31766568), yuv420p(tv, bt709, progressive), 1920x1080 [SAR 1:1 DAR 16:9], 373 kb/s, 30 fps, 30 tbr, 15360 tbn (default)\n",
      "    Metadata:\n",
      "      handler_name    : VideoHandle\n",
      "      vendor_id       : [0][0][0][0]\n",
      "  Stream #0:1[0x2](eng): Audio: aac (LC) (mp4a / 0x6134706D), 48000 Hz, stereo, fltp, 128 kb/s (default)\n",
      "    Metadata:\n",
      "      handler_name    : SoundHandle\n",
      "      vendor_id       : [0][0][0][0]\n",
      "Stream mapping:\n",
      "  Stream #0:0 -> #0:0 (hevc (native) -> png (native))\n",
      "Press [q] to stop, [?] for help\n",
      "Output #0, image2, to 'C:\\Users\\ASABUNCUOGLU13\\Documents\\data\\vol05\\face\\frames-10\\f%d.png':\n",
      "  Metadata:\n",
      "    major_brand     : isom\n",
      "    minor_version   : 512\n",
      "    compatible_brands: isomiso2mp41\n",
      "    location        : +41.2071+029.0747/\n",
      "    location-eng    : +41.2071+029.0747/\n",
      "    encoder         : Lavf59.16.100\n",
      "  Stream #0:0(eng): Video: png, rgb24(pc, gbr/bt709/bt709, progressive), 1920x1080 [SAR 1:1 DAR 16:9], q=2-31, 200 kb/s, 1 fps, 1 tbn (default)\n",
      "    Metadata:\n",
      "      handler_name    : VideoHandle\n",
      "      vendor_id       : [0][0][0][0]\n",
      "      encoder         : Lavc59.18.100 png\n",
      "frame=    1 fps=0.0 q=0.0 size=N/A time=00:00:00.00 bitrate=N/A speed=   0x    \n",
      "frame=   11 fps=0.0 q=-0.0 size=N/A time=00:00:04.00 bitrate=N/A speed=6.42x    \n",
      "frame=   22 fps= 20 q=-0.0 size=N/A time=00:00:14.00 bitrate=N/A speed=12.5x    \n",
      "frame=   33 fps= 20 q=-0.0 size=N/A time=00:00:24.00 bitrate=N/A speed=14.8x    \n",
      "frame=   44 fps= 21 q=-0.0 size=N/A time=00:00:35.00 bitrate=N/A speed=16.5x    \n",
      "frame=   55 fps= 21 q=-0.0 size=N/A time=00:00:46.00 bitrate=N/A speed=17.5x    \n",
      "frame=   65 fps= 21 q=-0.0 size=N/A time=00:00:56.00 bitrate=N/A speed=17.9x    \n",
      "frame=   76 fps= 21 q=-0.0 size=N/A time=00:01:07.00 bitrate=N/A speed=18.5x    \n",
      "frame=   85 fps= 21 q=-0.0 size=N/A time=00:01:16.00 bitrate=N/A speed=18.4x    \n",
      "frame=   96 fps= 21 q=-0.0 size=N/A time=00:01:27.00 bitrate=N/A speed=18.8x    \n",
      "frame=  106 fps= 21 q=-0.0 size=N/A time=00:01:37.00 bitrate=N/A speed=18.8x    \n",
      "frame=  117 fps= 21 q=-0.0 size=N/A time=00:01:48.00 bitrate=N/A speed=19.1x    \n",
      "frame=  128 fps= 21 q=-0.0 size=N/A time=00:01:59.00 bitrate=N/A speed=19.3x    \n",
      "frame=  137 fps= 21 q=-0.0 size=N/A time=00:02:08.00 bitrate=N/A speed=19.2x    \n",
      "frame=  148 fps= 21 q=-0.0 size=N/A time=00:02:19.00 bitrate=N/A speed=19.4x    \n",
      "frame=  158 fps= 21 q=-0.0 size=N/A time=00:02:29.00 bitrate=N/A speed=19.5x    \n",
      "frame=  168 fps= 21 q=-0.0 size=N/A time=00:02:39.00 bitrate=N/A speed=19.5x    \n",
      "frame=  179 fps= 21 q=-0.0 size=N/A time=00:02:50.00 bitrate=N/A speed=19.6x    \n",
      "frame=  190 fps= 21 q=-0.0 size=N/A time=00:03:01.00 bitrate=N/A speed=19.8x    \n",
      "frame=  201 fps= 21 q=-0.0 size=N/A time=00:03:12.00 bitrate=N/A speed=19.9x    \n",
      "frame=  212 fps= 21 q=-0.0 size=N/A time=00:03:23.00 bitrate=N/A speed=  20x    \n",
      "frame=  223 fps= 21 q=-0.0 size=N/A time=00:03:34.00 bitrate=N/A speed=  20x    \n",
      "frame=  234 fps= 21 q=-0.0 size=N/A time=00:03:45.00 bitrate=N/A speed=20.1x    \n",
      "frame=  245 fps= 21 q=-0.0 size=N/A time=00:03:56.00 bitrate=N/A speed=20.2x    \n",
      "frame=  257 fps= 21 q=-0.0 size=N/A time=00:04:08.00 bitrate=N/A speed=20.4x    \n",
      "frame=  270 fps= 21 q=-0.0 size=N/A time=00:04:21.00 bitrate=N/A speed=20.6x    \n",
      "frame=  281 fps= 21 q=-0.0 size=N/A time=00:04:32.00 bitrate=N/A speed=20.6x    \n",
      "frame=  293 fps= 21 q=-0.0 size=N/A time=00:04:44.00 bitrate=N/A speed=20.7x    \n",
      "frame=  300 fps= 21 q=-0.0 Lsize=N/A time=00:05:00.00 bitrate=N/A speed=21.2x    \n",
      "video:458602kB audio:0kB subtitle:0kB other streams:0kB global headers:0kB muxing overhead: unknown\n",
      "ffmpeg version 5.0.1-essentials_build-www.gyan.dev Copyright (c) 2000-2022 the FFmpeg developers\n",
      "  built with gcc 11.2.0 (Rev7, Built by MSYS2 project)\n",
      "  configuration: --enable-gpl --enable-version3 --enable-static --disable-w32threads --disable-autodetect --enable-fontconfig --enable-iconv --enable-gnutls --enable-libxml2 --enable-gmp --enable-lzma --enable-zlib --enable-libsrt --enable-libssh --enable-libzmq --enable-avisynth --enable-sdl2 --enable-libwebp --enable-libx264 --enable-libx265 --enable-libxvid --enable-libaom --enable-libopenjpeg --enable-libvpx --enable-libass --enable-libfreetype --enable-libfribidi --enable-libvidstab --enable-libvmaf --enable-libzimg --enable-amf --enable-cuda-llvm --enable-cuvid --enable-ffnvcodec --enable-nvdec --enable-nvenc --enable-d3d11va --enable-dxva2 --enable-libmfx --enable-libgme --enable-libopenmpt --enable-libopencore-amrwb --enable-libmp3lame --enable-libtheora --enable-libvo-amrwbenc --enable-libgsm --enable-libopencore-amrnb --enable-libopus --enable-libspeex --enable-libvorbis --enable-librubberband\n",
      "  libavutil      57. 17.100 / 57. 17.100\n",
      "  libavcodec     59. 18.100 / 59. 18.100\n",
      "  libavformat    59. 16.100 / 59. 16.100\n",
      "  libavdevice    59.  4.100 / 59.  4.100\n",
      "  libavfilter     8. 24.100 /  8. 24.100\n",
      "  libswscale      6.  4.100 /  6.  4.100\n",
      "  libswresample   4.  3.100 /  4.  3.100\n",
      "  libpostproc    56.  3.100 / 56.  3.100\n",
      "Input #0, mov,mp4,m4a,3gp,3g2,mj2, from 'D:\\vol05\\3\\v9.mp4':\n",
      "  Metadata:\n",
      "    major_brand     : isom\n",
      "    minor_version   : 512\n",
      "    compatible_brands: isomiso2mp41\n",
      "    encoder         : Lavf59.16.100\n",
      "    location-eng    : +41.2071+029.0747/\n",
      "    location        : +41.2071+029.0747/\n",
      "  Duration: 00:05:00.10, start: 0.000000, bitrate: 935 kb/s\n",
      "  Stream #0:0[0x1](eng): Video: hevc (Main) (hev1 / 0x31766568), yuv420p(tv, bt709, progressive), 1920x1080 [SAR 1:1 DAR 16:9], 791 kb/s, 30 fps, 30 tbr, 15360 tbn (default)\n",
      "    Metadata:\n",
      "      handler_name    : VideoHandle\n",
      "      vendor_id       : [0][0][0][0]\n",
      "  Stream #0:1[0x2](eng): Audio: aac (LC) (mp4a / 0x6134706D), 48000 Hz, stereo, fltp, 129 kb/s (default)\n",
      "    Metadata:\n",
      "      handler_name    : SoundHandle\n",
      "      vendor_id       : [0][0][0][0]\n",
      "Stream mapping:\n",
      "  Stream #0:0 -> #0:0 (hevc (native) -> png (native))\n",
      "Press [q] to stop, [?] for help\n",
      "Output #0, image2, to 'C:\\Users\\ASABUNCUOGLU13\\Documents\\data\\vol05\\face\\frames-11\\f%d.png':\n",
      "  Metadata:\n",
      "    major_brand     : isom\n",
      "    minor_version   : 512\n",
      "    compatible_brands: isomiso2mp41\n",
      "    location        : +41.2071+029.0747/\n",
      "    location-eng    : +41.2071+029.0747/\n",
      "    encoder         : Lavf59.16.100\n",
      "  Stream #0:0(eng): Video: png, rgb24(pc, gbr/bt709/bt709, progressive), 1920x1080 [SAR 1:1 DAR 16:9], q=2-31, 200 kb/s, 1 fps, 1 tbn (default)\n",
      "    Metadata:\n",
      "      handler_name    : VideoHandle\n",
      "      vendor_id       : [0][0][0][0]\n",
      "      encoder         : Lavc59.18.100 png\n",
      "frame=    1 fps=0.0 q=0.0 size=N/A time=00:00:00.00 bitrate=N/A speed=   0x    \n",
      "frame=   12 fps=0.0 q=-0.0 size=N/A time=00:00:06.00 bitrate=N/A speed=9.79x    \n",
      "frame=   21 fps= 19 q=-0.0 size=N/A time=00:00:15.00 bitrate=N/A speed=13.5x    \n",
      "frame=   29 fps= 18 q=-0.0 size=N/A time=00:00:23.00 bitrate=N/A speed=14.3x    \n",
      "frame=   37 fps= 17 q=-0.0 size=N/A time=00:00:31.00 bitrate=N/A speed=14.7x    \n",
      "frame=   47 fps= 18 q=-0.0 size=N/A time=00:00:41.00 bitrate=N/A speed=15.7x    \n",
      "frame=   55 fps= 18 q=-0.0 size=N/A time=00:00:49.00 bitrate=N/A speed=15.7x    \n",
      "frame=   64 fps= 18 q=-0.0 size=N/A time=00:00:58.00 bitrate=N/A speed=  16x    \n",
      "frame=   73 fps= 18 q=-0.0 size=N/A time=00:01:07.00 bitrate=N/A speed=16.3x    \n",
      "frame=   82 fps= 18 q=-0.0 size=N/A time=00:01:16.00 bitrate=N/A speed=16.4x    \n",
      "frame=   90 fps= 18 q=-0.0 size=N/A time=00:01:24.00 bitrate=N/A speed=16.4x    \n",
      "frame=   98 fps= 17 q=-0.0 size=N/A time=00:01:32.00 bitrate=N/A speed=16.3x    \n",
      "frame=  106 fps= 17 q=-0.0 size=N/A time=00:01:40.00 bitrate=N/A speed=16.3x    \n",
      "frame=  114 fps= 17 q=-0.0 size=N/A time=00:01:48.00 bitrate=N/A speed=16.3x    \n",
      "frame=  122 fps= 17 q=-0.0 size=N/A time=00:01:56.00 bitrate=N/A speed=16.2x    \n",
      "frame=  132 fps= 17 q=-0.0 size=N/A time=00:02:06.00 bitrate=N/A speed=16.5x    \n",
      "frame=  140 fps= 17 q=-0.0 size=N/A time=00:02:13.00 bitrate=N/A speed=16.3x    \n",
      "frame=  150 fps= 17 q=-0.0 size=N/A time=00:02:22.00 bitrate=N/A speed=16.4x    \n",
      "frame=  159 fps= 17 q=-0.0 size=N/A time=00:02:31.00 bitrate=N/A speed=16.5x    \n",
      "frame=  169 fps= 18 q=-0.0 size=N/A time=00:02:41.00 bitrate=N/A speed=16.7x    \n",
      "frame=  179 fps= 18 q=-0.0 size=N/A time=00:02:51.00 bitrate=N/A speed=16.8x    \n",
      "frame=  188 fps= 18 q=-0.0 size=N/A time=00:03:00.00 bitrate=N/A speed=16.9x    \n",
      "frame=  198 fps= 18 q=-0.0 size=N/A time=00:03:10.00 bitrate=N/A speed=  17x    \n",
      "frame=  207 fps= 18 q=-0.0 size=N/A time=00:03:19.00 bitrate=N/A speed=17.1x    \n",
      "frame=  215 fps= 18 q=-0.0 size=N/A time=00:03:27.00 bitrate=N/A speed=  17x    \n",
      "frame=  223 fps= 18 q=-0.0 size=N/A time=00:03:35.00 bitrate=N/A speed=  17x    \n",
      "frame=  233 fps= 18 q=-0.0 size=N/A time=00:03:45.00 bitrate=N/A speed=17.1x    \n",
      "frame=  242 fps= 18 q=-0.0 size=N/A time=00:03:54.00 bitrate=N/A speed=17.1x    \n",
      "frame=  251 fps= 18 q=-0.0 size=N/A time=00:04:03.00 bitrate=N/A speed=17.1x    \n",
      "frame=  261 fps= 18 q=-0.0 size=N/A time=00:04:13.00 bitrate=N/A speed=17.2x    \n",
      "frame=  270 fps= 18 q=-0.0 size=N/A time=00:04:22.00 bitrate=N/A speed=17.3x    \n",
      "frame=  280 fps= 18 q=-0.0 size=N/A time=00:04:32.00 bitrate=N/A speed=17.4x    \n",
      "frame=  288 fps= 18 q=-0.0 size=N/A time=00:04:40.00 bitrate=N/A speed=17.3x    \n",
      "frame=  296 fps= 18 q=-0.0 size=N/A time=00:04:48.00 bitrate=N/A speed=17.3x    \n",
      "frame=  300 fps= 18 q=-0.0 Lsize=N/A time=00:05:00.00 bitrate=N/A speed=17.6x    \n",
      "video:565993kB audio:0kB subtitle:0kB other streams:0kB global headers:0kB muxing overhead: unknown\n"
     ]
    }
   ],
   "source": [
    "ind = 0\n",
    "for f in vidfiles:\n",
    "    !ffmpeg -i {f} -vf fps=1 {os.path.join(out_dir, output_folder % ind, output_name)}\n",
    "    ind = ind + 1"
   ]
  },
  {
   "cell_type": "markdown",
   "id": "d676dabe",
   "metadata": {},
   "source": [
    "# Extract Individual Frames"
   ]
  },
  {
   "cell_type": "code",
   "execution_count": null,
   "id": "7e072146",
   "metadata": {},
   "outputs": [],
   "source": [
    "# Extract individual frame using timestamp\n",
    "!ffmpeg -ss 00:17:48 -i {os.path.join(base_dir, video_name)} -frames:v 1 {os.path.join(base_dir, output_name)}"
   ]
  },
  {
   "cell_type": "code",
   "execution_count": null,
   "id": "c11bedce",
   "metadata": {},
   "outputs": [],
   "source": [
    "# Extract individual frame using frame count (Takes longer time)\n",
    "# e.g. 00:17:48 = (17*60+48) * 24 FPS =  25632\n",
    "!ffmpeg -i {os.path.join(base_dir, video_name)} -vf \"select=eq(n\\,25632)\" -vframes 1 {os.path.join(base_dir, output_name)}"
   ]
  },
  {
   "cell_type": "code",
   "execution_count": null,
   "id": "d542a9f2",
   "metadata": {},
   "outputs": [],
   "source": []
  }
 ],
 "metadata": {
  "kernelspec": {
   "display_name": "Python 3.9.12 ('base')",
   "language": "python",
   "name": "python3"
  },
  "language_info": {
   "codemirror_mode": {
    "name": "ipython",
    "version": 3
   },
   "file_extension": ".py",
   "mimetype": "text/x-python",
   "name": "python",
   "nbconvert_exporter": "python",
   "pygments_lexer": "ipython3",
   "version": "3.9.12 (main, Apr  4 2022, 05:22:27) [MSC v.1916 64 bit (AMD64)]"
  },
  "vscode": {
   "interpreter": {
    "hash": "f76be68d9c5d6e76a66d5315d11dc6a9ea46dedf1868770abac3c9563870c381"
   }
  }
 },
 "nbformat": 4,
 "nbformat_minor": 5
}
